<svg width="25" height="25" viewBox="0 0 25 25" fill="none" xmlns="http://www.w3.org/2000/svg">
<path d="M8.625 12.5L8.625 8.5C8.625 6.29086 10.4159 4.5 12.625 4.5V4.5C14.8341 4.5 16.625 6.29086 16.625 8.5L16.625 12.5" stroke="#343F24" stroke-linecap="round"/>
<path d="M3.97592 21.1771L4.34386 20.8386L3.97592 21.1771ZM21.4445 19.3339L20.9462 19.3754L21.4445 19.3339ZM21.2741 21.1771L21.642 21.5157L21.2741 21.1771ZM20.139 10.0282L20.4775 9.66029L20.139 10.0282ZM5.11105 10.0282L4.77249 9.66029L5.11105 10.0282ZM8.30553 10H16.9445V9H8.30553V10ZM20.4324 13.2093L20.9462 19.3754L21.9428 19.2924L21.4289 13.1263L20.4324 13.2093ZM19.4514 21H5.7986V22H19.4514V21ZM4.30378 19.3754L4.81762 13.2093L3.82108 13.1263L3.30723 19.2924L4.30378 19.3754ZM5.7986 21C5.27534 21 4.93497 20.9989 4.68588 20.9644C4.45106 20.9318 4.38153 20.8795 4.34386 20.8386L3.60798 21.5157C3.86741 21.7976 4.20069 21.9067 4.54868 21.9549C4.88238 22.0011 5.30481 22 5.7986 22V21ZM3.30723 19.2924C3.26623 19.7845 3.23002 20.2053 3.24837 20.5417C3.2675 20.8925 3.34854 21.2337 3.60798 21.5157L4.34386 20.8386C4.30619 20.7976 4.25979 20.724 4.24688 20.4873C4.23319 20.2362 4.26033 19.8969 4.30378 19.3754L3.30723 19.2924ZM20.9462 19.3754C20.9897 19.8969 21.0168 20.2362 21.0031 20.4873C20.9902 20.724 20.9438 20.7976 20.9061 20.8386L21.642 21.5157C21.9015 21.2337 21.9825 20.8925 22.0016 20.5417C22.02 20.2053 21.9838 19.7845 21.9428 19.2924L20.9462 19.3754ZM19.4514 22C19.9452 22 20.3676 22.0011 20.7013 21.9549C21.0493 21.9067 21.3826 21.7976 21.642 21.5157L20.9061 20.8386C20.8685 20.8795 20.7989 20.9318 20.5641 20.9644C20.315 20.9989 19.9747 21 19.4514 21V22ZM16.9445 10C17.8314 10 18.4483 10.001 18.9171 10.0619C19.3718 10.1209 19.6188 10.2291 19.8004 10.3962L20.4775 9.66029C20.085 9.29916 19.6083 9.14322 19.0459 9.07019C18.4978 8.99901 17.8044 9 16.9445 9V10ZM21.4289 13.1263C21.3575 12.2693 21.3009 11.5783 21.1845 11.0379C21.065 10.4836 20.87 10.0214 20.4775 9.66029L19.8004 10.3962C19.982 10.5633 20.1103 10.8005 20.2069 11.2486C20.3065 11.7108 20.3587 12.3254 20.4324 13.2093L21.4289 13.1263ZM8.30553 9C7.44556 9 6.75224 8.99901 6.20409 9.07019C5.64172 9.14322 5.16497 9.29916 4.77249 9.66029L5.4496 10.3962C5.63121 10.2291 5.87824 10.1209 6.33286 10.0619C6.80169 10.001 7.41857 10 8.30553 10V9ZM4.81762 13.2093C4.89128 12.3254 4.94349 11.7108 5.0431 11.2486C5.13968 10.8005 5.268 10.5633 5.4496 10.3962L4.77249 9.66029C4.38001 10.0214 4.18502 10.4836 4.06554 11.0379C3.94909 11.5783 3.89249 12.2693 3.82108 13.1263L4.81762 13.2093Z" fill="#343F24"/>
</svg>
