<svg width="24" height="24" viewBox="0 0 24 24" fill="none" xmlns="http://www.w3.org/2000/svg">
<path d="M8 12L8 8C8 5.79086 9.79086 4 12 4V4C14.2091 4 16 5.79086 16 8L16 12" stroke="white" stroke-linecap="round"/>
<path d="M3.35092 20.6771L3.71886 20.3386L3.35092 20.6771ZM20.8195 18.8339L20.3212 18.8754L20.8195 18.8339ZM20.6491 20.6771L21.017 21.0157L20.6491 20.6771ZM19.514 9.52824L19.8525 9.16029L19.514 9.52824ZM4.48605 9.52824L4.14749 9.16029L4.48605 9.52824ZM7.68053 9.5H16.3195V8.5H7.68053V9.5ZM19.8074 12.7093L20.3212 18.8754L21.3178 18.7924L20.8039 12.6263L19.8074 12.7093ZM18.8264 20.5H5.1736V21.5H18.8264V20.5ZM3.67878 18.8754L4.19262 12.7093L3.19608 12.6263L2.68223 18.7924L3.67878 18.8754ZM5.1736 20.5C4.65034 20.5 4.30997 20.4989 4.06088 20.4644C3.82606 20.4318 3.75653 20.3795 3.71886 20.3386L2.98298 21.0157C3.24241 21.2976 3.57569 21.4067 3.92368 21.4549C4.25738 21.5011 4.67981 21.5 5.1736 21.5V20.5ZM2.68223 18.7924C2.64123 19.2845 2.60502 19.7053 2.62337 20.0417C2.6425 20.3925 2.72354 20.7337 2.98298 21.0157L3.71886 20.3386C3.68119 20.2976 3.63479 20.224 3.62188 19.9873C3.60819 19.7362 3.63533 19.3969 3.67878 18.8754L2.68223 18.7924ZM20.3212 18.8754C20.3647 19.3969 20.3918 19.7362 20.3781 19.9873C20.3652 20.224 20.3188 20.2976 20.2811 20.3386L21.017 21.0157C21.2765 20.7337 21.3575 20.3925 21.3766 20.0417C21.395 19.7053 21.3588 19.2845 21.3178 18.7924L20.3212 18.8754ZM18.8264 21.5C19.3202 21.5 19.7426 21.5011 20.0763 21.4549C20.4243 21.4067 20.7576 21.2976 21.017 21.0157L20.2811 20.3386C20.2435 20.3795 20.1739 20.4318 19.9391 20.4644C19.69 20.4989 19.3497 20.5 18.8264 20.5V21.5ZM16.3195 9.5C17.2064 9.5 17.8233 9.50099 18.2921 9.56187C18.7468 9.6209 18.9938 9.72908 19.1754 9.89618L19.8525 9.16029C19.46 8.79916 18.9833 8.64322 18.4209 8.57019C17.8728 8.49901 17.1794 8.5 16.3195 8.5V9.5ZM20.8039 12.6263C20.7325 11.7693 20.6759 11.0783 20.5595 10.5379C20.44 9.98358 20.245 9.52143 19.8525 9.16029L19.1754 9.89618C19.357 10.0633 19.4853 10.3005 19.5819 10.7486C19.6815 11.2108 19.7337 11.8254 19.8074 12.7093L20.8039 12.6263ZM7.68053 8.5C6.82056 8.5 6.12724 8.49901 5.57909 8.57019C5.01672 8.64322 4.53997 8.79916 4.14749 9.16029L4.8246 9.89618C5.00621 9.72908 5.25324 9.6209 5.70786 9.56187C6.17669 9.50099 6.79357 9.5 7.68053 9.5V8.5ZM4.19262 12.7093C4.26628 11.8254 4.31849 11.2108 4.4181 10.7486C4.51468 10.3005 4.643 10.0633 4.8246 9.89618L4.14749 9.16029C3.75501 9.52143 3.56002 9.98358 3.44054 10.5379C3.32409 11.0783 3.26749 11.7693 3.19608 12.6263L4.19262 12.7093Z" fill="white"/>
</svg>
