<svg width="123" height="33" viewBox="0 0 123 33" fill="none" xmlns="http://www.w3.org/2000/svg">
<g clip-path="url(#clip0_1_503)">
<path fill-rule="evenodd" clip-rule="evenodd" d="M47.506 0.414074C47.5621 0.543063 48.2211 1.50818 48.9705 2.55878C50.3183 4.44858 50.349 4.46911 51.8083 4.46911H53.2838L52.2038 2.3244L51.1238 0.179688H49.2637C48.2407 0.179688 47.4496 0.285085 47.506 0.414074ZM7.71213 7.97755C4.60138 8.94971 2.61538 10.6888 1.22101 13.6607C0.543281 15.1056 0.43145 15.7607 0.436046 18.2565C0.440948 20.8017 0.547571 21.385 1.28504 22.9017C2.21677 24.8184 3.84031 26.4505 5.84899 27.4898C7.72193 28.4589 11.8143 28.648 14.2636 27.8789C16.727 27.1053 19.2262 24.6576 20.1778 22.0864C21.1441 19.4747 20.9716 15.7178 19.7728 13.2676C17.6412 8.9108 12.2675 6.55377 7.71213 7.97755ZM29.8759 7.98306C28.3133 8.54007 26.6876 10.1486 26.2663 11.5543C25.4437 14.3011 26.8583 16.3456 31.2672 18.7811C34.6445 20.6467 35.9141 21.84 35.9141 23.1483C35.9141 26.3785 29.6476 26.8069 26.1971 23.8122C25.6395 23.3285 25.6251 23.371 25.7651 25.1018C25.8512 26.1684 26.0843 27.0048 26.3417 27.1712C28.0014 28.2444 32.5856 28.7068 34.9778 28.0425C36.4182 27.6427 38.2212 26.0915 38.7684 24.782C38.9961 24.2369 39.1824 23.2283 39.1824 22.5404C39.1824 20.1347 37.9351 18.7271 34.0182 16.7136C29.6626 14.4742 28.4119 12.6686 30.0202 10.9421C31.7687 9.06522 35.1972 9.52143 37.3903 11.9226L38.2632 12.8782V11.4884C38.2632 10.3588 38.099 9.94118 37.3857 9.25794C35.7616 7.7021 32.3089 7.11599 29.8759 7.98306ZM45.2007 8.06916C45.345 8.3639 45.5031 12.9827 45.5522 18.3331L45.641 28.0609H51.9097H58.1784V26.6822V25.3034H53.4294H48.6804V22.0864V18.8693H52.6634H56.6464V17.4906V16.1118H52.6634H48.6804V13.2011V10.2905H53.123H57.5656V8.91172V7.53298H51.2519C45.3432 7.53298 44.955 7.56729 45.2007 8.06916ZM69.5775 8.09489C64.3328 9.966 61.5532 15.8722 63.2417 21.5575C64.1799 24.7167 67.0605 27.3669 70.3582 28.105C71.5966 28.3823 72.3252 28.7475 72.8255 29.3422C74.0554 30.8034 76.9967 32.0265 79.8007 32.2422C82.2561 32.4315 82.2785 32.4266 82.9706 31.5488L83.6676 30.6652L81.7233 30.4765C79.6344 30.2736 78.5399 29.9185 76.9213 28.9185L75.8955 28.2843L77.7253 27.4062C79.8026 26.4092 81.5355 24.657 82.4942 22.5833C83.0248 21.4353 83.1489 20.5869 83.1489 18.1033C83.1489 15.3753 83.0558 14.8501 82.2996 13.3105C81.3005 11.2764 79.2357 9.26621 77.2283 8.37279C75.1908 7.46649 71.6956 7.33934 69.5775 8.09489ZM87.166 8.06916C87.3051 8.3639 87.492 11.9143 87.5817 15.9586C87.7585 23.9369 87.8247 24.2596 89.6324 25.9763C91.1766 27.4429 93.2637 28.1531 96.0117 28.1473C99.6454 28.1397 102.104 26.7845 103.618 23.9538C104.248 22.776 104.295 22.2334 104.386 15.1161L104.482 7.53298H102.756C101.097 7.53298 101.041 7.55933 101.282 8.22235C101.419 8.60166 101.532 11.876 101.532 15.499C101.532 21.1733 101.459 22.2212 101.001 23.0579C100.111 24.6833 98.7541 25.4309 96.4835 25.5452C93.9206 25.6745 92.6148 25.0265 91.6512 23.1477C90.9946 21.867 90.9618 21.465 90.9618 14.6681V7.53298H88.9375C87.1176 7.53298 86.9386 7.58721 87.166 8.06916ZM109.557 7.91596C109.693 8.12676 109.874 12.7109 109.958 18.1033L110.111 27.9077L116.469 27.9904L122.826 28.0735V26.6883V25.3034H117.924H113.022V22.0864V18.8693H116.852H120.681V17.4906V16.1118H116.852H113.022V13.2011V10.2905H117.617H122.213V8.91172V7.53298H115.761C110.671 7.53298 109.361 7.61386 109.557 7.91596ZM12.4323 10.444C15.654 11.4008 17.7056 15.0159 17.3272 19.0685C16.9384 23.2335 14.2379 25.9269 10.4684 25.9095C6.49516 25.8911 3.8348 22.7353 3.8636 18.0742C3.88934 13.9417 5.86614 11.1088 9.30963 10.2705C10.6681 9.93996 10.7497 9.94425 12.4323 10.444ZM74.832 10.3153C76.4501 10.7648 78.5516 12.7789 79.2262 14.5275C80.0366 16.6275 79.945 20.1187 79.0295 22.0187C76.5255 27.2159 69.5502 27.185 67.1034 21.966C65.0424 17.5705 66.9392 11.8573 70.9317 10.4342C72.3846 9.91636 73.2946 9.88848 74.832 10.3153Z" fill="black" fill-opacity="0.4"/>
</g>
<defs>
<clipPath id="clip0_1_503">
<rect width="122.39" height="32.1624" fill="white" transform="translate(0.435913 0.179688)"/>
</clipPath>
</defs>
</svg>
