<svg width="103" height="39" viewBox="0 0 103 39" fill="none" xmlns="http://www.w3.org/2000/svg">
<path fill-rule="evenodd" clip-rule="evenodd" d="M83.5869 0.398591C83.3975 0.626735 83.3665 1.2068 83.4686 2.60058L83.6075 4.49273L82.7909 4.41491C81.726 4.3134 80.8859 4.90123 80.2209 6.21331C79.8046 7.0352 79.7441 7.37466 79.8514 8.28908C80.0863 10.293 81.8448 11.3793 83.0264 10.2503C83.2909 9.99741 83.3416 9.9204 83.1387 10.0789C82.5323 10.5528 82.5595 10.2452 83.1912 9.48311L83.7827 8.76947L83.7882 9.31971C83.7938 9.87445 84.7964 11.2658 84.8085 10.736C84.814 10.5021 84.8693 10.5007 85.1416 10.7266C85.4398 10.9741 85.4576 10.5664 85.3467 6.01928C85.2498 2.05116 85.1618 0.944542 84.9132 0.56505C84.5562 0.0203219 83.9627 -0.0542258 83.5869 0.398591ZM100.608 3.28073C100.291 3.43963 99.7404 3.90777 99.3846 4.32096L98.7375 5.07239L98.5972 4.32402C98.4163 3.35957 98.0797 3.06872 97.5727 3.43943C97.2132 3.70229 97.2071 3.80462 97.4722 5.121C97.6274 5.89203 97.7465 7.30399 97.7369 8.25885C97.7236 9.56461 97.7986 10.0836 98.039 10.3524C98.7817 11.1827 99.1638 10.6575 99.4046 8.47617C99.4845 7.75293 99.6914 6.87977 99.8646 6.53582C100.354 5.5636 101.384 4.5824 101.916 4.5824C102.178 4.5824 102.451 4.43207 102.521 4.24825C102.841 3.41492 101.596 2.78543 100.608 3.28073ZM87.4218 3.47231C86.7341 3.84547 86.3289 4.5971 86.1414 5.84628C85.7899 8.19125 87.5503 10.5056 89.6855 10.5056C90.3095 10.5056 91.449 9.49986 91.0049 9.34096C90.8709 9.29296 90.8117 9.1218 90.8736 8.96044C91.0055 8.6169 90.6698 8.58034 90.114 8.87772C89.6209 9.14161 88.805 8.65427 88.3871 7.84586C88.0335 7.16245 88.1473 7.03337 89.1026 7.03337C90.6718 7.03337 91.3379 5.18431 90.1502 4.1259C88.99 3.09221 88.3881 2.94801 87.4218 3.47231ZM92.5831 3.93146C91.5746 4.94003 91.2531 8.06992 91.999 9.61996C92.3673 10.3855 93.4118 10.6085 94.0983 10.0685C94.5764 9.69226 94.5983 9.69206 94.8601 10.0587C95.2905 10.6618 96.0586 10.7607 96.4859 10.2682C96.8276 9.87424 96.8299 9.80358 96.5213 9.20677C96.3141 8.80603 96.1544 7.843 96.0938 6.62589C96.0405 5.55809 95.9197 4.53562 95.8254 4.35364C95.6021 3.92227 94.3991 3.35691 93.7043 3.35691C93.3775 3.35691 92.9267 3.58792 92.5831 3.93146ZM94.1516 6.49824C94.0482 7.18104 93.8387 7.91837 93.6857 8.13671C93.4277 8.50476 93.3977 8.50783 93.2713 8.17817C93.0523 7.60751 93.3358 5.61977 93.7198 5.03378C94.04 4.54502 94.0848 4.53052 94.2059 4.8761C94.2794 5.08546 94.2549 5.81544 94.1516 6.49824ZM89.1042 5.30931C89.1042 5.49171 88.8979 5.60363 88.5619 5.60363C88.0348 5.60363 88.0299 5.5924 88.385 5.20004C88.7727 4.77133 89.1042 4.82178 89.1042 5.30931ZM83.4706 5.72761C83.7017 5.81625 83.7929 6.12181 83.7909 6.79991C83.7868 8.23066 83.642 8.52907 82.7394 8.96616C81.9263 9.36015 81.9065 9.36036 81.6271 8.97821C81.0362 8.17 81.5164 6.28746 82.4259 5.84812C82.977 5.58178 83.0644 5.57177 83.4706 5.72761ZM64.1239 7.08524C63.0157 7.77335 62.5549 8.56767 62.5541 9.79071C62.553 11.6408 63.8249 12.9543 65.619 12.9557C67.5424 12.9574 69.0193 11.3685 68.82 9.51211C68.5759 7.23782 66.012 5.91286 64.1239 7.08524ZM31.0622 8.19145C29.8628 8.5544 28.14 8.968 27.2333 9.11056L25.5848 9.36996L25.4515 10.0809C25.3675 10.5287 25.4014 10.8195 25.543 10.8667C26.1733 11.0767 27.1322 11.91 27.3032 12.3959C27.4441 12.7966 27.3169 14.0971 26.8342 17.1894C25.0172 28.8294 24.3581 33.4556 24.3622 34.5402C24.3733 37.4758 26.209 38.8935 29.1994 38.2757C31.7229 37.7544 34.2198 35.937 33.8254 34.9091C33.6794 34.5286 33.1005 34.5576 31.4529 35.0279C30.5311 35.291 30.4568 35.282 30.0291 34.8543L29.5777 34.4029L29.9157 31.7986C30.1014 30.3662 30.9523 24.3789 31.8064 18.4935C32.6606 12.6081 33.3332 7.73393 33.3009 7.66224C33.2688 7.59035 32.2613 7.8285 31.0622 8.19145ZM8.73279 8.07054C7.70645 8.39488 4.74384 9.08156 2.9628 9.40795C2.56717 9.48046 2.50324 9.61934 2.50324 10.4073C2.50324 11.2419 2.54736 11.3226 3.00242 11.3226C3.27714 11.3226 3.7418 11.5293 4.0351 11.7821L4.56839 12.2417L2.71239 24.5987C1.69156 31.395 0.805944 37.2085 0.744466 37.5173L0.632538 38.079H3.40213C6.10821 38.079 6.17418 38.0684 6.27345 37.6194C6.32921 37.3666 6.65314 35.1909 6.99342 32.7845C7.33349 30.378 7.64334 28.3772 7.68214 28.3386C7.72095 28.2998 8.08676 29.0739 8.49505 30.0588C10.0383 33.7804 12.3782 36.9699 14.2191 37.8611C16.3798 38.907 21.0226 37.8647 21.8402 36.1505C22.2816 35.2246 22.0816 34.7214 21.3426 34.8984C19.4964 35.3406 18.9662 35.2892 18.0336 34.5774C17.2969 34.0153 16.7013 33.1205 14.7223 29.6027C13.3954 27.2437 12.309 25.2065 12.3083 25.0756C12.3063 24.6546 15.3277 21.7721 16.4393 21.1346C17.4074 20.5795 17.6923 20.5174 19.2777 20.5155L21.0401 20.5137L21.3855 19.1389C21.5755 18.3828 21.8293 17.6452 21.9501 17.5C22.2599 17.1267 22.0642 17.0053 20.8387 16.8113C19.505 16.6003 17.6118 16.8848 16.7379 17.4277C16.1394 17.7995 12.8159 21.1062 9.37658 24.7518C8.6082 25.5664 7.96319 26.2326 7.94338 26.2326C7.92336 26.2326 8.50832 22.0507 9.24341 16.9394C10.3707 9.10055 10.5312 7.64897 10.2691 7.6647C10.0982 7.67491 9.40681 7.85771 8.73279 8.07054ZM101.255 8.95003C100.985 9.14692 100.829 9.59708 100.739 10.4308C100.667 11.0897 100.571 11.7668 100.524 11.9353C100.423 12.3015 101.282 12.2462 101.666 11.8616C102.37 11.1577 102.646 9.42327 102.135 8.91244C101.823 8.60056 101.727 8.60464 101.255 8.95003ZM64.5951 17.1647C63.3036 17.5464 61.5343 17.971 60.6633 18.1081L59.0798 18.3573V19.1291C59.0798 19.7002 59.1648 19.901 59.4064 19.901C59.9828 19.901 61.1033 20.5407 61.2309 20.9426C61.299 21.1569 61.2132 22.228 61.0406 23.3229C60.8678 24.4177 60.4854 27.2437 60.1909 29.6027C59.8964 31.9618 59.6066 34.2763 59.5469 34.7461C59.3296 36.4558 60.5812 38.0465 62.398 38.3696C64.1672 38.6842 67.4472 37.5467 68.5502 36.2359C69.523 35.0798 69.1756 34.6899 67.6167 35.1885C66.8547 35.4321 66.5436 35.4469 66.1302 35.2585C65.3284 34.8931 65.1498 34.1552 65.2804 31.7473C65.3731 30.0406 66.736 20.4982 67.3696 17.1207C67.5287 16.2729 67.6163 16.2715 64.5951 17.1647ZM93.9812 16.8869C89.624 18.4153 87.3264 22.7369 89.1853 25.9087C89.8832 27.0997 91.6971 28.721 93.3566 29.637C96.2988 31.2612 97.2741 32.2287 97.2741 33.523C97.2741 35.5414 93.2065 36.0108 89.7376 34.3925C89.0186 34.0571 88.4104 33.8074 88.3859 33.8374C88.3614 33.8674 87.8769 34.6454 87.3095 35.5663L86.2778 37.241L87.1293 37.5571C89.958 38.6078 93.7406 38.8384 96.0633 38.1021C99.7641 36.9289 101.97 34.3729 101.714 31.5537C101.476 28.9322 99.6926 26.5511 96.3172 24.3503C94.248 23.001 93.665 22.2147 93.9093 21.1019C94.2982 19.3313 98.0707 19.1661 100.562 20.8107L101.298 21.2958L102.039 19.7494C102.917 17.9159 102.953 17.9743 100.44 17.1324C98.0899 16.3448 95.7776 16.257 93.9812 16.8869ZM77.7685 17.0754C76.9821 17.3027 75.3761 17.693 74.1996 17.9428C72.0988 18.3891 72.0581 18.4085 71.9302 19.0339C71.8161 19.5928 71.8692 19.6994 72.3643 19.9044C73.3606 20.3172 73.8459 21.0233 73.9396 22.1971C73.9938 22.8746 73.6369 25.779 72.9737 30.0629C72.3953 33.7984 71.9047 37.0923 71.8837 37.3827L71.8453 37.9109L74.5971 37.8823C76.1106 37.8664 77.4012 37.7691 77.465 37.666C77.5287 37.5629 77.9298 34.607 78.3563 31.0976C79.1751 24.3597 79.3187 23.7878 80.4559 22.7326C81.5301 21.7365 82.3352 21.4547 84.141 21.4434C85.0619 21.4375 85.9145 21.334 86.0354 21.2132C86.3438 20.9048 87.3031 17.229 87.1675 16.8754C86.9717 16.3648 84.8546 16.661 83.3279 17.4126C82.2774 17.93 81.755 18.3679 80.8444 19.4949C80.2102 20.2798 79.6723 20.9224 79.649 20.9224C79.6257 20.9226 79.6379 19.9575 79.6763 18.7778C79.7558 16.3297 79.9006 16.459 77.7685 17.0754ZM46.5266 17.0644C43.5911 17.4921 42.3103 18.2274 39.7686 20.9436C36.3215 24.6279 34.9418 29.1589 35.8959 33.6621C36.6675 37.3037 39.0229 39.0628 42.3131 38.4548C44.2012 38.1057 46.5321 36.6891 47.4598 35.327C47.7285 34.9324 47.9943 34.6094 48.0504 34.6094C48.1066 34.6092 48.1597 35.1062 48.1683 35.7134C48.1873 37.0359 48.6205 37.7924 49.5917 38.1983C51.0312 38.7996 53.6158 38.427 55.1433 37.3976C56.0733 36.771 57.0128 35.5353 56.7551 35.2777C56.6854 35.2079 56.1946 35.2502 55.6644 35.3715C54.8978 35.5467 54.5858 35.5324 54.1389 35.3014C52.8827 34.6519 52.8793 34.0753 54.0737 24.4965C54.578 20.4524 54.9914 17.0748 54.9926 16.9904C54.9957 16.7823 48.0457 16.8432 46.5266 17.0644ZM48.8595 19.2839C49.6709 19.7182 49.6826 20.4351 48.9497 24.827C48.1989 29.3276 47.4342 32.3741 46.857 33.1644C45.5776 34.9164 43.0588 35.2238 41.8411 33.7767C40.7402 32.4683 40.6767 30.4283 41.6211 26.7057C42.5817 22.9185 44.519 20.3724 47.185 19.3932C48.1277 19.0468 48.385 19.03 48.8595 19.2839Z" fill="black" fill-opacity="0.4"/>
</svg>
