<svg width="134" height="32" viewBox="0 0 134 32" fill="none" xmlns="http://www.w3.org/2000/svg">
<path fill-rule="evenodd" clip-rule="evenodd" d="M73.7064 0.722402C71.5938 1.64178 70.0838 3.28796 68.4873 6.41259C67.7703 7.81495 66.7117 9.34465 66.1345 9.81211C65.2229 10.5503 65.1706 10.8221 65.7364 11.8792C66.53 13.3617 66.1749 17.1801 64.7005 23.0167C63.5855 27.4324 62.4663 29.4332 60.6508 30.2584C59.2267 30.9055 59.4783 31.7705 61.1499 31.9713C64.2155 32.3394 65.9212 29.2277 68.3294 18.8754C69.5449 13.6506 69.9466 12.9316 72.3408 11.6943C74.3659 10.6481 74.4047 10.4535 72.7156 9.81107C70.8955 9.11895 70.6501 8.07637 71.6761 5.39072C72.7632 2.54407 74.0543 1.72409 76.1094 2.57565C77.7059 3.23671 78.6822 2.93439 78.6822 1.77999C78.6822 1.00194 77.1219 -0.0323544 75.9986 0.000776249C75.6238 0.0121649 74.5926 0.33674 73.7064 0.722402ZM19.2251 1.1852C18.8094 1.6863 18.8182 2.30387 19.2577 3.46862C19.7992 4.90256 19.7158 5.25561 18.4439 6.92353C17.5163 8.14005 17.2699 8.78092 17.7311 8.78092C19.5512 8.78092 22.2514 4.84044 22.2545 2.18067C22.256 0.75398 22.0697 0.498253 21.0255 0.498253C20.349 0.498253 19.5383 0.807302 19.2251 1.1852ZM5.86671 2.7734L7.33637 3.97542L5.96248 10.908C3.79708 21.8313 3.15362 23.8134 1.46396 24.7747C0.660543 25.2313 0.00207158 25.78 9.13622e-07 25.9933C-0.00155209 26.2066 1.97697 26.3816 4.39706 26.3816C8.93544 26.3816 9.62912 26.0249 7.64801 24.7095C6.52778 23.9656 6.51535 23.8502 7.14949 20.0754C7.5072 17.9462 8.36756 13.6604 9.06175 10.5513C10.2167 5.37519 10.4843 4.75658 12.235 3.216L14.1463 1.53359L9.27192 1.55222L4.39706 1.57086L5.86671 2.7734ZM96.4097 10.0715C92.3025 11.8564 89.0324 17.9545 89.8881 22.233C90.7392 26.4877 96.1493 27.8657 100.274 24.8783C105.352 21.1992 106.928 13.619 103.27 10.4633C101.7 9.10912 98.9815 8.95381 96.4097 10.0715ZM33.0318 10.8697C31.9825 11.4236 30.9787 12.1126 30.8012 12.3999C30.2302 13.3234 28.599 12.9585 28.307 11.8419C28.1238 11.142 27.6921 10.8252 27.0817 10.9427C26.3404 11.0851 26.0076 11.9516 25.5246 14.9996C24.7771 19.7125 24.6689 25.3462 25.3253 25.3462C25.7627 25.3462 27.2557 21.8453 28.1957 18.6166C29.5303 14.0306 34.8126 10.3391 35.9183 13.2204C36.1518 13.8292 34.8964 19.4371 33.3393 24.7406C33.0204 25.8266 33.1322 25.9297 34.4636 25.7759C36.1554 25.5802 36.8465 24.4776 38.0361 20.0743C39.0253 16.4129 41.7224 12.7235 43.5689 12.5055C45.4423 12.285 45.7353 13.9105 44.7538 19.0851C43.7133 24.5687 44.5825 26.2817 47.7822 25.0538C48.4318 24.8042 48.4427 24.5552 47.8583 23.3713C47.279 22.1983 47.3033 21.3064 48.0156 17.6548C48.7642 13.8168 48.773 13.1738 48.0938 11.9604C47.6729 11.2083 46.8364 10.5213 46.2343 10.4343C45.0618 10.2645 42.3984 11.3221 40.5105 12.7079C39.4244 13.5046 39.3307 13.4974 39.0082 12.593C37.9869 9.72669 36.1813 9.20592 33.0318 10.8697ZM77.7245 10.6487L76.536 11.4811L77.6179 12.6324L78.6993 13.7836L77.1634 19.6938C76.3185 22.9448 75.8236 25.8008 76.0644 26.0415C76.8227 26.7999 78.3633 26.1652 79.0171 24.825C79.3634 24.1152 79.9054 22.2247 80.2223 20.6241C80.9434 16.9771 83.4147 12.9222 84.917 12.9222C86.4327 12.9222 88.0002 11.992 88.0002 11.0923C88.0002 9.65784 85.3989 10.2433 83.5483 12.094C82.0501 13.5921 81.7882 13.7024 81.7882 12.8363C81.7882 10.088 79.9427 9.09462 77.7245 10.6487ZM118.025 10.8179C113.602 13.2582 114 13.1795 112.897 11.8336C111.231 9.80124 110.505 11.2714 109.833 18.0358C108.966 26.7553 109.861 27.5168 112.329 20.1597C113.638 16.2565 115.371 13.7681 117.571 12.6303C118.79 11.9998 119.297 11.9568 119.874 12.4356C120.9 13.2877 120.808 14.5555 119.325 19.9144C117.728 25.6889 117.728 25.8639 119.327 25.8639C120.767 25.8639 121.417 24.723 122.883 19.6209C123.896 16.095 126.95 12.2752 128.572 12.5066C129.998 12.71 130.238 14.6347 129.416 19.2849C128.605 23.8693 128.964 25.3462 130.89 25.3462C132.798 25.3462 133.028 25.0481 132.41 23.375C132.043 22.3826 132.12 20.8068 132.675 17.9038C133.59 13.1231 133.155 11.0307 131.141 10.5255C129.793 10.1869 126.219 11.5225 125.206 12.7431C124.44 13.6667 123.719 13.6278 123.719 12.6634C123.719 11.6022 121.851 9.81625 120.743 9.81728C120.244 9.81728 119.021 10.2677 118.025 10.8179ZM101.114 11.5002C103.38 13.1578 102.327 20.1095 99.3474 23.1565C98.1537 24.3777 97.2488 24.8286 95.9919 24.8286C92.5981 24.8286 91.6239 20.6034 93.8933 15.7285C95.8221 11.5867 98.8261 9.82764 101.114 11.5002Z" fill="black" fill-opacity="0.4"/>
</svg>
