<svg width="95" height="28" viewBox="0 0 95 28" fill="none" xmlns="http://www.w3.org/2000/svg">
<g clip-path="url(#clip0_1_505)">
<path fill-rule="evenodd" clip-rule="evenodd" d="M19.726 1.00431L19.177 1.47646L19.1239 10.735C19.0898 16.6862 19.1431 20.4628 19.2731 21.3071C19.6787 23.9417 20.9846 25.797 23.2202 26.9155C25.6669 28.1396 28.2909 28.2392 30.9996 27.2111C32.5464 26.6237 34.4168 24.7647 35.0513 23.1837L35.5032 22.0578L35.5593 12.0323C35.5996 4.8637 35.555 1.86022 35.4026 1.4926C35.0226 0.574948 33.7962 0.343939 32.8761 1.01651C32.5108 1.28355 32.4984 1.56354 32.407 11.4867C32.315 21.4846 32.3053 21.6971 31.9082 22.4331C31.4332 23.3132 30.6967 24.0355 29.7798 24.5202C29.2825 24.7831 28.7118 24.8681 27.4301 24.87C25.9801 24.8723 25.6034 24.8038 24.8046 24.3932C23.6377 23.7934 22.7454 22.6453 22.4783 21.3998C22.3457 20.7807 22.2734 17.1178 22.2734 10.9975C22.2734 0.431578 22.3284 0.86094 20.9457 0.639691C20.4053 0.55318 20.1681 0.624114 19.726 1.00431ZM59.1343 1.0045L58.5854 1.47646L58.5323 13.8314C58.503 20.6265 58.5263 26.3784 58.5839 26.6132C58.866 27.7622 60.5078 28.2201 61.2991 27.3706C61.6763 26.9658 61.6818 26.7815 61.6818 14.2553C61.6818 0.0464982 61.7615 0.864881 60.3541 0.639691C59.8136 0.55318 59.5764 0.624115 59.1343 1.0045ZM84.3198 0.856061C81.0078 1.69527 78.8321 4.01173 78.3727 7.18729C78.2794 7.83153 78.2033 11.0187 78.2033 14.2699C78.2033 20.7571 78.3134 22.0242 79.0089 23.5435C81.4117 28.7917 89.6334 29.4637 93.2295 24.7058C94.5607 22.9443 94.5971 22.6971 94.6703 14.9267C94.715 10.1872 94.6668 7.62604 94.5187 6.85739C93.9887 4.108 92.3026 2.16836 89.5572 1.14956C88.1038 0.610227 85.7995 0.480931 84.3198 0.856061ZM1.34101 1.40684L0.88031 1.86735V14.2757V26.6843L1.42884 27.2328C2.01433 27.8183 2.53058 27.915 3.19152 27.5631C4.04893 27.1063 4.05831 27.0371 4.06451 21.0725C4.07107 14.8646 4.01853 15.1178 5.18145 15.698C7.5345 16.8718 11.0713 16.768 13.4848 15.4544C16.2877 13.9291 17.7445 10.787 17.2076 7.42581C16.7039 4.2737 14.826 2.20871 11.5896 1.24864C10.7795 1.00806 9.67138 0.946137 6.18599 0.946137H1.80153L1.34101 1.40684ZM39.0604 1.40684L38.5997 1.86735V14.2757V26.6843L39.1483 27.2328C39.45 27.5346 39.8764 27.7814 40.0959 27.7814C40.6398 27.7814 41.531 27.2994 41.6734 26.9284C41.7374 26.7614 41.7899 24.0982 41.7899 21.0102C41.7899 16.8444 41.8466 15.3959 42.0099 15.3959C42.1307 15.3959 42.7429 15.5999 43.3704 15.8492C43.9977 16.0985 44.9094 16.361 45.3964 16.4325C46.4245 16.5836 46.467 16.6271 47.0431 18.1169C47.2825 18.7362 48.0302 20.3407 48.7042 21.6824C50.08 24.4208 51.1639 25.6803 52.8808 26.5359C54.4607 27.3233 55.6048 27.1722 56.0411 26.1189C56.3553 25.3604 55.9143 24.511 55.0599 24.229C53.8504 23.8298 51.8364 21.2159 50.5181 18.3346C49.5149 16.142 49.508 16.249 50.6906 15.7076C56.1601 13.2035 56.5508 5.0645 51.3478 2.01598C49.7955 1.1064 48.6798 0.946137 43.9 0.946137H39.521L39.0604 1.40684ZM63.6437 1.40684C63.3904 1.66018 63.183 2.08616 63.183 2.35358C63.183 2.62099 63.3904 3.04698 63.6437 3.30032C64.0816 3.73831 64.2154 3.76102 66.358 3.76102C68.3943 3.76102 68.6308 3.79611 68.8062 4.12395C68.9339 4.36266 69.0005 8.34778 69.0005 15.7588C69.0005 26.7806 69.0087 27.039 69.3758 27.406C69.6259 27.6562 70.0013 27.7814 70.5017 27.7814C71.0022 27.7814 71.3775 27.6562 71.6277 27.406C71.9948 27.039 72.003 26.7806 72.003 15.6211C72.003 6.99701 72.058 4.15642 72.2282 3.98621C72.378 3.83646 73.1976 3.76102 74.6762 3.76102C76.7862 3.76102 76.9227 3.73756 77.3597 3.30032C77.6131 3.04698 77.8204 2.62099 77.8204 2.35358C77.8204 2.08616 77.6131 1.66018 77.3597 1.40684L76.8992 0.946137H70.5017H64.1043L63.6437 1.40684ZM88.5665 3.9483C89.6341 4.34764 90.5075 5.13149 91.0763 6.20058C91.4 6.80916 91.4257 7.40085 91.4257 14.2699C91.4257 21.5391 91.4178 21.6973 91.0145 22.4509C90.0954 24.1684 88.3271 25.0618 86.0954 24.9357C83.7694 24.8041 82.0277 23.4372 81.5909 21.3998C81.4657 20.8158 81.386 17.9796 81.386 14.107C81.386 6.75962 81.4545 6.3098 82.775 4.98944C83.2156 4.54881 83.949 4.05658 84.4046 3.89557C85.5938 3.47559 87.3629 3.49792 88.5665 3.9483ZM11.3892 4.25212C12.4106 4.72033 13.5047 5.88907 13.8489 6.87972C14.2454 8.022 14.1621 10.087 13.682 11.0127C12.1753 13.9171 7.70922 14.5182 5.3282 12.1372C4.31128 11.1203 4.07051 10.0635 4.07051 6.61719V3.72386L7.30763 3.79442C10.0833 3.85504 10.6652 3.92034 11.3892 4.25212ZM49.0148 4.20146C49.9589 4.61562 50.9013 5.51094 51.4153 6.48207C51.7244 7.06588 51.8128 7.56655 51.8128 8.73398C51.8128 10.5135 51.4249 11.4248 50.2333 12.4447C48.3402 14.0652 44.9146 13.958 43.1707 12.2241C42.0223 11.082 41.8901 10.5691 41.8211 6.97918L41.7584 3.7233L45.0113 3.79761C47.5818 3.85654 48.4216 3.94117 49.0148 4.20146Z" fill="black" fill-opacity="0.4"/>
</g>
<defs>
<clipPath id="clip0_1_505">
<rect width="93.806" height="27.3077" fill="white" transform="translate(0.88031 0.606689)"/>
</clipPath>
</defs>
</svg>
