<svg width="25" height="25" viewBox="0 0 25 25" fill="none" xmlns="http://www.w3.org/2000/svg">
<path d="M8.75 12.5L8.75 8.5C8.75 6.29086 10.5409 4.5 12.75 4.5V4.5C14.9591 4.5 16.75 6.29086 16.75 8.5L16.75 12.5" stroke="#FDFFFC" stroke-linecap="round"/>
<path d="M4.10092 21.1771L4.46886 20.8386L4.10092 21.1771ZM21.5695 19.3339L21.0712 19.3754L21.5695 19.3339ZM21.3991 21.1771L21.767 21.5157L21.3991 21.1771ZM20.264 10.0282L20.6025 9.66029L20.264 10.0282ZM5.23605 10.0282L4.89749 9.66029L5.23605 10.0282ZM8.43053 10H17.0695V9H8.43053V10ZM20.5574 13.2093L21.0712 19.3754L22.0678 19.2924L21.5539 13.1263L20.5574 13.2093ZM19.5764 21H5.9236V22H19.5764V21ZM4.42878 19.3754L4.94262 13.2093L3.94608 13.1263L3.43223 19.2924L4.42878 19.3754ZM5.9236 21C5.40034 21 5.05997 20.9989 4.81088 20.9644C4.57606 20.9318 4.50653 20.8795 4.46886 20.8386L3.73298 21.5157C3.99241 21.7976 4.32569 21.9067 4.67368 21.9549C5.00738 22.0011 5.42981 22 5.9236 22V21ZM3.43223 19.2924C3.39123 19.7845 3.35502 20.2053 3.37337 20.5417C3.3925 20.8925 3.47354 21.2337 3.73298 21.5157L4.46886 20.8386C4.43119 20.7976 4.38479 20.724 4.37188 20.4873C4.35819 20.2362 4.38533 19.8969 4.42878 19.3754L3.43223 19.2924ZM21.0712 19.3754C21.1147 19.8969 21.1418 20.2362 21.1281 20.4873C21.1152 20.724 21.0688 20.7976 21.0311 20.8386L21.767 21.5157C22.0265 21.2337 22.1075 20.8925 22.1266 20.5417C22.145 20.2053 22.1088 19.7845 22.0678 19.2924L21.0712 19.3754ZM19.5764 22C20.0702 22 20.4926 22.0011 20.8263 21.9549C21.1743 21.9067 21.5076 21.7976 21.767 21.5157L21.0311 20.8386C20.9935 20.8795 20.9239 20.9318 20.6891 20.9644C20.44 20.9989 20.0997 21 19.5764 21V22ZM17.0695 10C17.9564 10 18.5733 10.001 19.0421 10.0619C19.4968 10.1209 19.7438 10.2291 19.9254 10.3962L20.6025 9.66029C20.21 9.29916 19.7333 9.14322 19.1709 9.07019C18.6228 8.99901 17.9294 9 17.0695 9V10ZM21.5539 13.1263C21.4825 12.2693 21.4259 11.5783 21.3095 11.0379C21.19 10.4836 20.995 10.0214 20.6025 9.66029L19.9254 10.3962C20.107 10.5633 20.2353 10.8005 20.3319 11.2486C20.4315 11.7108 20.4837 12.3254 20.5574 13.2093L21.5539 13.1263ZM8.43053 9C7.57056 9 6.87724 8.99901 6.32909 9.07019C5.76672 9.14322 5.28997 9.29916 4.89749 9.66029L5.5746 10.3962C5.75621 10.2291 6.00324 10.1209 6.45786 10.0619C6.92669 10.001 7.54357 10 8.43053 10V9ZM4.94262 13.2093C5.01628 12.3254 5.06849 11.7108 5.1681 11.2486C5.26468 10.8005 5.393 10.5633 5.5746 10.3962L4.89749 9.66029C4.50501 10.0214 4.31002 10.4836 4.19054 11.0379C4.07409 11.5783 4.01749 12.2693 3.94608 13.1263L4.94262 13.2093Z" fill="#FDFFFC"/>
</svg>
