<svg width="12" height="10" viewBox="0 0 12 10" fill="none" xmlns="http://www.w3.org/2000/svg">
<path d="M1.59365 0H9.56342C10.4422 0 11.1571 0.641215 11.1571 1.42939V5.85453C11.1571 6.6427 10.4422 7.28391 9.56344 7.28391H8.40561V9.55632C8.40561 9.63487 8.35318 9.70576 8.27253 9.73635C8.24517 9.74673 8.21634 9.75177 8.18775 9.75177C8.13209 9.75177 8.07733 9.73263 8.03584 9.69648L5.26801 7.28391H1.59365C0.714904 7.28391 9.53674e-07 6.6427 9.53674e-07 5.85453V1.42939C9.53674e-07 0.641215 0.714904 0 1.59365 0ZM0.435824 5.85453C0.435824 6.42714 0.955216 6.89301 1.59365 6.89301H5.35646C5.41319 6.89301 5.46766 6.91285 5.50833 6.9483L7.96977 9.09384V7.08846C7.96977 6.98052 8.06733 6.89301 8.18768 6.89301H9.56342C10.2019 6.89301 10.7213 6.42714 10.7213 5.85453V1.42939C10.7213 0.856777 10.2019 0.390921 9.56344 0.390921H1.59368C0.955238 0.390921 0.435846 0.856777 0.435846 1.42939V5.85453H0.435824Z" fill="#BDBDBD"/>
</svg>
