<svg width="36" height="36" viewBox="0 0 36 36" fill="none" xmlns="http://www.w3.org/2000/svg">
<g clip-path="url(#clip0_81_562)">
<path d="M0.711538 17.7885C0.711538 8.37292 8.37292 0.711538 17.7885 0.711538C27.2047 0.711538 34.8654 8.3729 34.8654 17.7885C34.8654 27.2033 27.2033 34.8654 17.7885 34.8654C8.37293 34.8654 0.711538 27.2033 0.711538 17.7885Z" fill="#FDFFFC" stroke="white" stroke-width="1.42308"/>
<path d="M22.0286 17.4468H19.1345C19.1345 22.0706 19.1345 27.7619 19.1345 27.7619H14.8461C14.8461 27.7619 14.8461 22.1257 14.8461 17.4468H12.8076V13.8011H14.8461V11.443C14.8461 9.7542 15.6486 7.11523 19.1739 7.11523L22.3517 7.12742V10.6663C22.3517 10.6663 20.4207 10.6663 20.0452 10.6663C19.6698 10.6663 19.136 10.8541 19.136 11.6594V13.8019H22.4033L22.0286 17.4468Z" fill="#283C1B"/>
</g>
<defs>
<clipPath id="clip0_81_562">
<rect width="35.5769" height="35.5769" fill="white"/>
</clipPath>
</defs>
</svg>
