<svg width="20" height="18" viewBox="0 0 20 18" fill="none" xmlns="http://www.w3.org/2000/svg">
<path d="M17.6118 10.4082L17.2695 10.0438L17.6118 10.4082ZM17.851 3.02734L17.4559 3.33384L17.851 3.02734ZM2.27404 3.02735L1.879 2.72085L2.27404 3.02735ZM2.51317 10.4082L2.17084 10.7726L2.51317 10.4082ZM9.46579 16.9395L9.80813 16.575L9.46579 16.9395ZM9.96622 17.3046L9.86993 17.7953L9.96622 17.3046ZM10.1588 17.3046L10.2551 17.7953L10.1588 17.3046ZM9.80813 16.575L2.85551 10.0438L2.17084 10.7726L9.12345 17.3039L9.80813 16.575ZM2.35973 3.73257L2.66908 3.33384L1.879 2.72085L1.56965 3.11957L2.35973 3.73257ZM17.4559 3.33384L17.7653 3.73256L18.5554 3.11957L18.246 2.72084L17.4559 3.33384ZM17.2695 10.0438L10.3169 16.575L11.0016 17.3039L17.9542 10.7726L17.2695 10.0438ZM17.7653 3.73256C19.2524 5.64933 19.0377 8.38275 17.2695 10.0438L17.9542 10.7726C20.0983 8.75844 20.3587 5.44386 18.5554 3.11957L17.7653 3.73256ZM11.0004 4.02902C12.2231 1.46722 15.7158 1.09109 17.4559 3.33384L18.246 2.72084C16.0497 -0.109931 11.6412 0.364811 10.0979 3.59829L11.0004 4.02902ZM9.12459 4.02902C9.50108 4.81784 10.6239 4.81784 11.0004 4.02902L10.0979 3.59829C10.092 3.61078 10.0869 3.61393 10.0846 3.61531C10.0804 3.61783 10.0728 3.62063 10.0625 3.62063C10.0522 3.62063 10.0446 3.61783 10.0404 3.61531C10.0381 3.61393 10.033 3.61078 10.0271 3.59829L9.12459 4.02902ZM2.66908 3.33384C4.40915 1.09109 7.90192 1.46722 9.12459 4.02902L10.0271 3.59829C8.48382 0.36481 4.07529 -0.109927 1.879 2.72085L2.66908 3.33384ZM2.85551 10.0438C1.08731 8.38274 0.872583 5.64934 2.35973 3.73257L1.56965 3.11957C-0.233688 5.44387 0.0266888 8.75843 2.17084 10.7726L2.85551 10.0438ZM9.12345 17.3039C9.23593 17.4095 9.3463 17.514 9.44777 17.5921C9.55593 17.6755 9.69277 17.7605 9.86993 17.7953L10.0625 16.814C10.0985 16.821 10.1048 16.836 10.058 16.7999C10.0044 16.7586 9.93514 16.6943 9.80813 16.575L9.12345 17.3039ZM10.3169 16.575C10.1899 16.6943 10.1206 16.7586 10.067 16.7999C10.0202 16.836 10.0265 16.821 10.0625 16.814L10.2551 17.7953C10.4322 17.7605 10.5691 17.6755 10.6772 17.5921C10.7787 17.514 10.8891 17.4095 11.0016 17.3039L10.3169 16.575ZM9.86993 17.7953C9.9971 17.8202 10.1279 17.8202 10.2551 17.7953L10.0625 16.814L9.86993 17.7953Z" fill="#343F24"/>
</svg>
