<svg width="25" height="25" viewBox="0 0 25 25" fill="none" xmlns="http://www.w3.org/2000/svg">
<path d="M20.2368 14.4082L19.8945 14.0438L20.2368 14.4082ZM20.476 7.02734L20.0809 7.33384L20.476 7.02734ZM4.89904 7.02735L4.504 6.72085L4.89904 7.02735ZM5.13817 14.4082L4.79584 14.7726L5.13817 14.4082ZM12.0908 20.9395L12.4331 20.575L12.0908 20.9395ZM12.5912 21.3046L12.4949 21.7953L12.5912 21.3046ZM12.7838 21.3046L12.8801 21.7953L12.7838 21.3046ZM12.4331 20.575L5.48051 14.0438L4.79584 14.7726L11.7484 21.3039L12.4331 20.575ZM4.98473 7.73257L5.29408 7.33384L4.504 6.72085L4.19465 7.11957L4.98473 7.73257ZM20.0809 7.33384L20.3903 7.73256L21.1804 7.11957L20.871 6.72084L20.0809 7.33384ZM19.8945 14.0438L12.9419 20.575L13.6266 21.3039L20.5792 14.7726L19.8945 14.0438ZM20.3903 7.73256C21.8774 9.64933 21.6627 12.3827 19.8945 14.0438L20.5792 14.7726C22.7233 12.7584 22.9837 9.44386 21.1804 7.11957L20.3903 7.73256ZM13.6254 8.02902C14.8481 5.46722 18.3408 5.09109 20.0809 7.33384L20.871 6.72084C18.6747 3.89007 14.2662 4.36481 12.7229 7.59829L13.6254 8.02902ZM11.7496 8.02902C12.1261 8.81784 13.2489 8.81784 13.6254 8.02902L12.7229 7.59829C12.717 7.61078 12.7119 7.61393 12.7096 7.61531C12.7054 7.61783 12.6978 7.62063 12.6875 7.62063C12.6772 7.62063 12.6696 7.61783 12.6654 7.61531C12.6631 7.61393 12.658 7.61078 12.6521 7.59829L11.7496 8.02902ZM5.29408 7.33384C7.03415 5.09109 10.5269 5.46722 11.7496 8.02902L12.6521 7.59829C11.1088 4.36481 6.70029 3.89007 4.504 6.72085L5.29408 7.33384ZM5.48051 14.0438C3.71231 12.3827 3.49758 9.64934 4.98473 7.73257L4.19465 7.11957C2.39131 9.44387 2.65169 12.7584 4.79584 14.7726L5.48051 14.0438ZM11.7484 21.3039C11.8609 21.4095 11.9713 21.514 12.0728 21.5921C12.1809 21.6755 12.3178 21.7605 12.4949 21.7953L12.6875 20.814C12.7235 20.821 12.7298 20.836 12.683 20.7999C12.6294 20.7586 12.5601 20.6943 12.4331 20.575L11.7484 21.3039ZM12.9419 20.575C12.8149 20.6943 12.7456 20.7586 12.692 20.7999C12.6452 20.836 12.6515 20.821 12.6875 20.814L12.8801 21.7953C13.0572 21.7605 13.1941 21.6755 13.3022 21.5921C13.4037 21.514 13.5141 21.4095 13.6266 21.3039L12.9419 20.575ZM12.4949 21.7953C12.6221 21.8202 12.7529 21.8202 12.8801 21.7953L12.6875 20.814L12.4949 21.7953Z" fill="#FDFFFC"/>
</svg>
