<svg width="44" height="57" viewBox="0 0 44 57" fill="none" xmlns="http://www.w3.org/2000/svg">
<path d="M8.34544 48.8975C6.97001 50.718 6.30151 52.0458 6.30151 52.9565C6.30151 54.7713 7.77802 56.2478 9.59289 56.2478C11.4078 56.2478 12.8843 54.7713 12.8843 52.9565C12.8843 52.0458 12.2157 50.7182 10.8403 48.8976C10.2146 48.069 8.97197 48.0683 8.34544 48.8975ZM9.59289 54.5999C8.68667 54.5999 7.9494 53.8627 7.9494 52.9565C7.9494 52.5936 8.38148 51.5991 9.59278 49.9805C10.8042 51.599 11.2363 52.5937 11.2363 52.9565C11.2364 53.8627 10.4991 54.5999 9.59289 54.5999Z" fill="#66833B"/>
<path d="M17.7491 16.6967H16.4131V14.887C16.4131 13.8307 15.6141 12.9585 14.589 12.8403V4.99606C14.589 2.24113 12.3477 0 9.5929 0C6.83807 0 4.59694 2.24113 4.59694 4.99606V6.31932C4.59694 6.77446 4.96585 7.14326 5.42089 7.14326C5.87592 7.14326 6.24483 6.77446 6.24483 6.31932V4.99606C6.24483 3.14988 7.74682 1.64789 9.59301 1.64789C11.4392 1.64789 12.9411 3.14988 12.9411 4.99606V12.8256H6.24483V10.1643C6.24483 9.70913 5.87592 9.34033 5.42089 9.34033C4.96585 9.34033 4.59694 9.70913 4.59694 10.1643V12.8402C3.57174 12.9584 2.77284 13.8306 2.77284 14.8869V16.6967H1.43685C0.644653 16.6967 0 17.3413 0 18.1335V22.6815C0 23.4738 0.644543 24.1184 1.43685 24.1184H5.61655V38.3356C5.61655 39.0068 5.81166 39.6579 6.18078 40.2188C6.45642 40.6374 6.54024 41.1631 6.41094 41.6612C6.29471 42.1087 6.23582 42.5234 6.23582 42.8934C6.23582 44.7445 7.74177 46.2505 9.59301 46.2505C11.4442 46.2505 12.9502 44.7445 12.9502 42.8934C12.9502 42.5233 12.8912 42.1086 12.7751 41.6611C12.6458 41.1631 12.7297 40.6374 13.0053 40.2187C13.3744 39.6579 13.5695 39.0068 13.5695 38.3356V24.1185H17.7492C18.5414 24.1185 19.186 23.4739 19.186 22.6816V18.1336C19.1858 17.3414 18.5412 16.6967 17.7491 16.6967ZM4.42062 14.887C4.42062 14.6589 4.60617 14.4734 4.83424 14.4734H14.3516C14.5796 14.4734 14.7652 14.6588 14.7652 14.887V16.6968H4.42062V14.887ZM11.9215 38.3357C11.9215 38.6839 11.8203 39.0217 11.6287 39.3128C11.0973 40.1201 10.9337 41.127 11.1799 42.0753C11.2599 42.3833 11.3022 42.6662 11.3022 42.8934C11.3022 43.8358 10.5355 44.6026 9.5929 44.6026C8.65031 44.6026 7.8836 43.8359 7.8836 42.8934C7.8836 42.6662 7.92589 42.3832 8.00576 42.0753C8.25207 41.1271 8.08849 40.1201 7.5571 39.3128C7.3655 39.0218 7.26432 38.6839 7.26432 38.3357V24.1185H11.9214V38.3357H11.9215ZM17.5379 22.4706H1.64789V18.3446H17.5379V22.4706Z" fill="#66833B"/>
<path d="M40.6549 27.0062C40.6244 26.9839 40.6053 26.9417 40.6053 26.8963V22.6079C40.6053 21.7676 39.9217 21.0841 39.0815 21.0841H27.1413C26.3011 21.0841 25.6175 21.7676 25.6175 22.6079V26.8963C25.6175 26.9417 25.5985 26.9839 25.5679 27.0062C23.4733 28.5367 22.2227 30.9965 22.2227 33.5861V37.9921C22.2227 38.4472 22.5916 38.816 23.0466 38.816C23.5016 38.816 23.8705 38.4472 23.8705 37.9921V36.0436H42.352V49.2145H23.8707V41.8373C23.8707 41.3821 23.5017 41.0133 23.0467 41.0133C22.5917 41.0133 22.2228 41.3821 22.2228 41.8373V53.833C22.2228 55.1646 23.3061 56.2478 24.6376 56.2478H41.5852C42.9168 56.2478 44 55.1646 44 53.833V33.5861C44.0001 30.9965 42.7496 28.5367 40.6549 27.0062ZM23.8707 34.3957V33.5861C23.8707 31.5205 24.8686 29.5582 26.5401 28.3368C26.9943 28.0049 27.2654 27.4665 27.2654 26.8964V22.732H38.9574V26.8963C38.9574 27.4664 39.2285 28.0049 39.6827 28.3367C41.3542 29.5581 42.3521 31.5204 42.3521 33.586V34.3956H23.8707V34.3957ZM41.5852 54.5999H24.6377C24.2147 54.5999 23.8708 54.2558 23.8708 53.833V50.8624H42.3522V53.833C42.3522 54.2558 42.0082 54.5999 41.5852 54.5999Z" fill="#66833B"/>
<path d="M36.8461 42.6291C36.8461 40.5699 35.1707 38.8945 33.1115 38.8945C31.0523 38.8945 29.377 40.5699 29.377 42.6291C29.377 44.6883 31.0523 46.3636 33.1115 46.3636C35.1707 46.3636 36.8461 44.6883 36.8461 42.6291ZM31.0248 42.6291C31.0248 41.4784 31.9609 40.5424 33.1115 40.5424C34.2621 40.5424 35.1982 41.4785 35.1982 42.6291C35.1982 43.7796 34.2621 44.7157 33.1115 44.7157C31.9609 44.7157 31.0248 43.7797 31.0248 42.6291Z" fill="#66833B"/>
</svg>
