<svg width="52" height="49" viewBox="0 0 52 49" fill="none" xmlns="http://www.w3.org/2000/svg">
<path d="M50.3659 33.6211C49.8505 33.4043 49.2565 33.6464 49.0397 34.1621C47.4499 37.9427 43.7728 40.3854 39.6721 40.3854C35.7407 40.3854 32.324 38.1403 30.6363 34.8649C29.154 31.9758 29.154 28.4796 30.6365 25.5906C32.3243 22.3154 35.7409 20.0704 39.6722 20.0704C43.7295 20.0704 47.3912 22.4778 49.0009 26.2036C49.2227 26.717 49.8188 26.9537 50.3323 26.7316C50.8458 26.5098 51.0822 25.9137 50.8604 25.4002C48.9298 20.9319 44.5382 18.0447 39.6722 18.0447C36.8664 18.0447 34.2794 18.9987 32.2175 20.5986V15.9222C32.2175 13.0396 29.8724 10.6944 26.9898 10.6944H26.305V2.73385C26.305 1.2264 25.0786 0 23.5711 0H8.26646C6.75901 0 5.53261 1.2264 5.53261 2.73385V10.6944H5.22776C2.34513 10.6945 0 13.0397 0 15.9223V44.2403C0 46.8648 2.13518 49 4.75975 49H27.4577C30.0822 49 32.2174 46.8648 32.2174 44.2403V39.8571C34.2794 41.457 36.8663 42.411 39.6721 42.411C44.5904 42.411 49.0003 39.4813 50.9069 34.9473C51.1237 34.4317 50.8816 33.8379 50.3659 33.6211ZM24.2792 2.73395V10.6945H20.0674V2.0257H23.571C23.9615 2.0257 24.2792 2.34341 24.2792 2.73395ZM13.6782 10.6945V2.0257H18.0418V10.6945H13.6782ZM7.55821 2.73395C7.55821 2.34341 7.87593 2.0257 8.26646 2.0257H11.6527V10.6945H7.55821V2.73395ZM2.0256 15.9223C2.0256 14.1566 3.46205 12.7201 5.22776 12.7201H26.9897C28.7554 12.7201 30.1918 14.1567 30.1918 15.9223V18.4352H20.478C19.9186 18.4352 19.4652 18.8886 19.4652 19.448C19.4652 19.5179 19.4723 19.5862 19.4857 19.6521C19.5801 20.1138 19.9885 20.461 20.478 20.461H30.1918V22.5752C26.6295 26.9843 26.6293 33.4712 30.1918 37.8805V39.5491H2.026V20.461H11.5712C12.1306 20.461 12.584 20.0075 12.584 19.4482V19.4481V19.448C12.584 18.8886 12.1306 18.4352 11.5712 18.4352H2.0256V15.9223ZM30.1918 44.2403C30.1918 45.7478 28.9653 46.9744 27.4577 46.9744H4.75975C3.2521 46.9744 2.0256 45.7478 2.0256 44.2403V41.5752H30.1918V44.2403Z" fill="#66833B"/>
<path d="M41.732 26.6883C42.2912 26.6883 42.7447 26.2349 42.7447 25.6755C42.7447 25.1161 42.2912 24.6627 41.732 24.6627H37.8956C37.3363 24.6627 36.8828 25.1161 36.8828 25.6755V34.7803C36.8828 35.3397 37.3363 35.7931 37.8956 35.7931H41.732C42.2912 35.7931 42.7447 35.3397 42.7447 34.7803C42.7447 34.2209 42.2912 33.7675 41.732 33.7675H38.9084V31.2407H41.4491C42.0083 31.2407 42.4619 30.7873 42.4619 30.2279C42.4619 29.6685 42.0083 29.2151 41.4491 29.2151H38.9084V26.6883H41.732Z" fill="#66833B"/>
<path d="M7.22021 27.3406C7.22021 27.8999 7.67364 28.3534 8.23301 28.3534H24.2451C24.8044 28.3534 25.2579 27.8999 25.2579 27.3406C25.2579 26.7812 24.8044 26.3278 24.2451 26.3278H8.23301C7.67364 26.3278 7.22021 26.7812 7.22021 27.3406Z" fill="#66833B"/>
<path d="M20.6698 31.7158H11.8082C11.2488 31.7158 10.7954 32.1692 10.7954 32.7286C10.7954 33.288 11.2488 33.7414 11.8082 33.7414H20.6698C21.2292 33.7414 21.6826 33.288 21.6826 32.7286C21.6826 32.1692 21.2292 31.7158 20.6698 31.7158Z" fill="#66833B"/>
<path d="M51.8355 30.0297C51.7258 29.4897 51.1868 29.1256 50.6445 29.2347C50.105 29.3431 49.7396 29.8848 49.8493 30.4257C49.9589 30.9658 50.4984 31.3291 51.0405 31.2208C51.5802 31.1129 51.9452 30.5703 51.8355 30.0297Z" fill="#66833B"/>
<path d="M15.1741 19.835C15.3309 20.2173 15.7205 20.4711 16.1336 20.4602C16.5926 20.448 16.9953 20.1177 17.0961 19.6698C17.2933 18.7929 16.2866 18.113 15.543 18.6092C15.1481 18.8727 14.9917 19.3972 15.1741 19.835Z" fill="#66833B"/>
</svg>
