<svg width="55" height="47" viewBox="0 0 55 47" fill="none" xmlns="http://www.w3.org/2000/svg">
<path d="M53.8691 14.7367C53.6871 14.555 53.3834 14.4275 53.1196 14.4275H38.0568C36.3041 14.427 34.6502 13.6865 33.5191 12.3475C32.0063 10.5565 29.7004 9.46473 27.3483 9.48917C24.9856 9.50102 22.7586 10.5413 21.2331 12.3475C20.1018 13.6869 18.4474 14.4274 16.6958 14.4274H1.0601C0.496613 14.4274 0 14.9212 0 15.4856V44.0273C0 44.6951 0.672803 45.2233 1.32762 45.0506C3.13068 44.5758 5.01121 44.8304 6.62327 45.7678C9.4494 47.4084 12.9582 47.4082 15.7893 45.7623C17.7897 44.5734 20.4456 44.5203 22.5554 45.6273C23.0731 45.8988 23.7127 45.6994 23.9841 45.1819C24.2555 44.6645 24.0561 44.0247 23.5386 43.7532C20.7501 42.2903 17.3664 42.363 14.7168 43.9379C12.5829 45.1783 9.82316 45.1783 7.68634 43.938C5.98073 42.9458 4.04296 42.541 2.11629 42.7561V24.658C3.68814 24.4296 5.27311 24.7596 6.64655 25.5472C9.44104 27.1593 13.0017 27.1721 15.7859 25.5305C17.7499 24.3727 20.5069 24.2124 22.5108 25.3824C25.6377 27.2113 29.2796 27.171 32.3825 25.319C34.4684 24.3172 36.9916 24.3533 38.9981 25.5338C41.7971 27.1611 45.3559 27.1625 48.1557 25.534C49.286 24.8774 50.7198 24.5453 52.0634 24.605V42.7191C50.3431 42.6583 48.5553 43.0875 47.0922 43.938C44.9244 45.1988 42.2306 45.1987 40.0685 43.9418C37.5075 42.4278 34.2255 42.3049 31.5033 43.6209C30.9772 43.8752 30.7568 44.5079 31.0113 45.0341C31.2656 45.5603 31.8984 45.7806 32.4245 45.5263C34.5167 44.5148 37.0333 44.6059 38.9981 45.7674C41.7964 47.3943 45.3577 47.3951 48.156 45.7674C49.5338 44.9667 51.3634 44.6474 52.9309 44.9347C53.5677 45.0515 54.1798 44.5323 54.1798 43.8939V23.66V15.4855C54.1798 15.2047 54.068 14.9352 53.8691 14.7367ZM47.3921 23.5388C47.2908 23.5921 47.1907 23.647 47.0922 23.7043C44.9082 24.9746 42.1867 24.9345 40.0107 23.6753C38.7142 22.9227 37.2282 22.5162 35.7309 22.4793C36.0012 22.1722 36.2659 21.8503 36.5237 21.5126L38.0077 19.5716C39.4296 17.7102 41.0708 16.6735 42.7552 16.5715H52.0634V22.48C50.4447 22.4109 48.8299 22.774 47.3921 23.5388ZM7.68644 23.7043C6.01449 22.7318 4.0402 22.3038 2.1164 22.5224V16.5716H12.0471C13.7314 16.6736 15.3727 17.7103 16.7949 19.572L18.2786 21.5127C18.5375 21.8515 18.8025 22.174 19.0728 22.482C17.5452 22.5145 16.0331 22.9214 14.7169 23.7042C12.5816 24.9454 9.82326 24.936 7.68644 23.7043ZM27.0101 21.659C29.5656 21.7972 31.8269 20.1679 33.423 18.3234C34.3106 17.2978 35.5746 16.5717 36.9562 16.5717H37.8996C37.3502 17.0623 36.824 17.6349 36.3262 18.2867L34.8423 20.2279C33.8089 21.5808 32.6964 22.6354 31.5332 23.3752C30.1526 24.0339 28.9154 24.6349 27.3315 24.6281C25.8456 24.6217 24.6818 24.0933 23.4002 23.4476C22.1777 22.6976 21.021 21.6158 19.9599 20.2276L18.4765 18.2871C17.9784 17.6352 17.4522 17.0625 16.9027 16.5719H17.6144C19.3024 16.5719 20.4335 17.5618 21.4988 18.7197C22.9333 20.2768 24.8358 21.5657 27.0101 21.659ZM22.8499 13.7132C23.9785 12.3771 25.6275 11.6094 27.376 11.6056C29.1246 11.6094 30.7736 12.3771 31.9022 13.7133C32.4407 14.3509 33.0669 14.8924 33.7553 15.3276C33.0518 15.733 32.399 16.2724 31.8226 16.9385C30.6814 18.2572 29.1007 19.5484 27.2641 19.5484C25.4598 19.5484 23.909 18.2913 22.7882 16.9855C22.5277 16.6825 22.252 16.4049 21.9637 16.1536C21.6273 15.8602 21.2726 15.6047 20.9046 15.3848C21.6295 14.9403 22.2875 14.379 22.8499 13.7132Z" fill="#66833B"/>
<path d="M14.4509 32.4506C14.4509 30.5856 12.9334 29.0681 11.0683 29.0681C9.20325 29.0681 7.68579 30.5855 7.68579 32.4506C7.68579 34.3158 9.20325 35.8332 11.0683 35.8332C12.9334 35.8332 14.4509 34.3158 14.4509 32.4506ZM11.0683 33.7168C10.3701 33.7168 9.80219 33.1488 9.80219 32.4506C9.80219 31.7524 10.3701 31.1845 11.0683 31.1845C11.7665 31.1845 12.3345 31.7524 12.3345 32.4506C12.3345 33.1488 11.7664 33.7168 11.0683 33.7168Z" fill="#66833B"/>
<path d="M47.0061 32.4506C47.0061 30.5856 45.4887 29.0681 43.6235 29.0681C41.7584 29.0681 40.241 30.5855 40.241 32.4506C40.241 34.3158 41.7584 35.8332 43.6235 35.8332C45.4887 35.8332 47.0061 34.3158 47.0061 32.4506ZM43.6235 33.7168C42.9253 33.7168 42.3574 33.1488 42.3574 32.4506C42.3574 31.7524 42.9253 31.1845 43.6235 31.1845C44.3217 31.1845 44.8897 31.7524 44.8897 32.4506C44.8897 33.1488 44.3217 33.7168 43.6235 33.7168Z" fill="#66833B"/>
<path d="M27.4226 34.775C25.5575 34.775 24.04 36.2924 24.04 38.1576C24.04 40.0226 25.5575 41.5401 27.4226 41.5401C29.2878 41.5401 30.8052 40.0227 30.8052 38.1576C30.8051 36.2925 29.2878 34.775 27.4226 34.775ZM27.4226 39.4237C26.7244 39.4237 26.1564 38.8558 26.1564 38.1576C26.1564 37.4594 26.7244 36.8914 27.4226 36.8914C28.1208 36.8914 28.6888 37.4595 28.6888 38.1576C28.6888 38.8557 28.1207 39.4237 27.4226 39.4237Z" fill="#66833B"/>
<path d="M26.5427 31.0715C26.863 31.5525 27.5303 31.6815 28.0104 31.3636C28.4917 31.0449 28.62 30.3754 28.3025 29.8969C27.9833 29.416 27.3143 29.2846 26.8348 29.6038C26.3521 29.9249 26.2277 30.5905 26.5427 31.0715Z" fill="#66833B"/>
<path d="M44.4527 39.8747C43.9362 39.1068 42.7194 39.3481 42.5352 40.2546C42.3364 41.2328 43.5453 41.9132 44.2829 41.2458C44.6658 40.8994 44.7386 40.3042 44.4527 39.8747Z" fill="#66833B"/>
<path d="M11.297 39.4843C10.4077 39.1135 9.51997 40.0826 9.94769 40.9369C10.149 41.3389 10.602 41.576 11.0476 41.5082C11.4957 41.4399 11.8554 41.0885 11.9345 40.6426C12.0199 40.1604 11.748 39.6723 11.297 39.4843Z" fill="#66833B"/>
<path d="M27.4227 5.85078C28.007 5.85078 28.4809 5.37703 28.4809 4.79258V1.0582C28.4809 0.473756 28.007 0 27.4227 0C26.8384 0 26.3645 0.473756 26.3645 1.0582V4.79258C26.3645 5.37703 26.8383 5.85078 27.4227 5.85078Z" fill="#66833B"/>
<path d="M35.3574 9.02434C35.6281 9.02434 35.8989 8.92095 36.1056 8.71439L38.7462 6.07376C39.1595 5.66053 39.1595 4.99048 38.7462 4.57725C38.3331 4.16403 37.6633 4.16403 37.2496 4.57725L34.609 7.21788C34.1958 7.63111 34.1958 8.30116 34.609 8.71439C34.8158 8.92106 35.0865 9.02434 35.3574 9.02434Z" fill="#66833B"/>
<path d="M18.8816 8.71439C19.2899 9.12264 19.9698 9.12254 20.3782 8.71439C20.7914 8.30116 20.7914 7.63111 20.3782 7.21788L17.7374 4.57725C17.3241 4.16403 16.6543 4.16403 16.2408 4.57725C15.8276 4.99048 15.8276 5.66053 16.2408 6.07376L18.8816 8.71439Z" fill="#66833B"/>
<path d="M28.3998 45.5392C28.1782 45.0074 27.5509 44.7454 27.0177 44.9668C26.4854 45.1877 26.2246 45.8161 26.4453 46.3488C26.6658 46.8813 27.2945 47.1424 27.8273 46.9213C28.3615 46.6996 28.6187 46.0734 28.3998 45.5392Z" fill="#66833B"/>
</svg>
