<svg width="60" height="43" viewBox="0 0 60 43" fill="none" xmlns="http://www.w3.org/2000/svg">
<path d="M51.7441 1.1172C51.1504 0.860442 50.4603 1.13325 50.2032 1.72727C49.9462 2.32129 50.2194 3.01117 50.8133 3.26816C54.9308 5.04987 57.6166 9.09868 57.6558 13.5831C57.6824 16.6125 56.5276 19.4709 54.4041 21.6318C52.2807 23.7927 49.4429 24.9973 46.4134 25.0237C40.1059 25.0874 34.8556 19.7571 34.976 13.464C35.0596 9.10571 37.7213 5.09136 41.7037 3.31727C42.2949 3.05383 42.5605 2.36114 42.2972 1.76993C42.0337 1.17884 41.3412 0.913059 40.7499 1.17638C38.461 2.19614 36.5522 3.7948 35.1606 5.75288H5.03201C2.25737 5.75276 0 8.01002 0 10.7847V16.8456C0 17.0002 0.0108983 20.6885 0.957534 25.4354C2.24085 31.8708 4.53912 36.9231 7.78906 40.4525C8.86085 41.6154 10.3892 42.2822 11.9824 42.2822H33.342C34.9366 42.2822 36.4653 41.6151 37.5359 40.452C40.4835 37.2501 42.6512 32.7857 43.9874 27.1693C44.7949 27.3082 45.6147 27.3743 46.434 27.3674C50.0893 27.3354 53.5136 25.8818 56.0758 23.2744C58.638 20.667 60.0315 17.2179 59.9995 13.5624C59.952 8.15181 56.7116 3.26676 51.7441 1.1172ZM2.34374 10.7847C2.34374 9.30247 3.54971 8.0965 5.03201 8.0965H33.8166C32.7602 10.4585 32.3988 13.1142 32.7726 15.6737H2.34374V10.7847ZM35.8115 38.8646C35.1834 39.547 34.2833 39.9384 33.342 39.9384H11.9824C11.0421 39.9384 10.1418 39.5468 9.51288 38.8645C3.63115 32.4768 2.57413 21.5894 2.38487 18.0174H33.3295C34.6598 22.0051 37.7655 25.1686 41.7188 26.5766C40.4856 31.7619 38.4536 35.9947 35.8115 38.8646Z" fill="#66833B"/>
<path d="M41.2555 11.3916C40.7323 12.2784 40.4516 13.2916 40.4433 14.3241C40.4207 17.1707 42.4484 19.574 45.1424 20.1235V21.1461C45.1424 21.7932 45.6672 22.3179 46.3143 22.3179C46.9614 22.3179 47.4862 21.7932 47.4862 21.1461V20.1261C51.3829 19.3412 53.3983 14.7804 51.3589 11.3687C51.2922 11.2595 50.8388 10.5238 47.9107 5.77549C47.5667 5.21756 46.9701 4.8844 46.3145 4.8844C46.3145 4.8844 46.3145 4.8844 46.3144 4.8844C45.6589 4.8844 45.0619 5.21756 44.7177 5.77549L41.2838 11.3432C41.2739 11.3592 41.2644 11.3753 41.2555 11.3916ZM43.2867 12.5612C43.2915 12.5527 43.2966 12.5443 43.3019 12.536L46.3142 7.6519C47.4307 9.46257 49.2662 12.4392 49.3564 12.5863C50.4058 14.4943 49.5913 16.9605 47.4862 17.6989V14.9713C47.4862 14.3242 46.9614 13.7994 46.3143 13.7994C45.6672 13.7994 45.1424 14.3242 45.1424 14.9713V17.6973C43.7628 17.2087 42.7747 15.884 42.7871 14.3427C42.792 13.7141 42.9648 13.0981 43.2867 12.5612Z" fill="#66833B"/>
<path d="M45.1229 1.61733C45.3685 2.20655 46.0625 2.49588 46.6534 2.25119C47.2434 2.00686 47.5307 1.31018 47.2873 0.720724C47.0436 0.130333 46.3463 -0.15666 45.7569 0.0867389C45.1647 0.331192 44.8809 1.02647 45.1229 1.61733Z" fill="#66833B"/>
<path d="M30.6133 23.3545H14.7114C12.1237 23.3545 10.0184 25.4599 10.0184 28.0476C10.0184 30.6353 12.1237 32.7406 14.7114 32.7406H30.6133C33.201 32.7406 35.3064 30.6353 35.3064 28.0476C35.3064 25.4599 33.201 23.3545 30.6133 23.3545ZM30.6133 30.3968H14.7114C13.416 30.3968 12.3622 29.343 12.3622 28.0476C12.3622 26.7521 13.416 25.6982 14.7114 25.6982H30.6133C31.9088 25.6982 32.9627 26.7521 32.9627 28.0476C32.9627 29.3429 31.9088 30.3968 30.6133 30.3968Z" fill="#66833B"/>
</svg>
