<svg width="48" height="57" viewBox="0 0 48 57" fill="none" xmlns="http://www.w3.org/2000/svg">
<path d="M45.6072 31.1901C44.1993 28.2569 42.6098 24.9451 43.3226 20.6856C43.4915 20.6216 43.6679 20.5589 43.8545 20.4972C44.5147 20.2787 44.9414 19.6898 44.9414 18.9968C44.9414 18.3323 44.5486 17.7646 43.9346 17.5262C44.0774 16.6197 44.1498 15.8907 44.1498 15.3536C44.1498 13.0306 43.6181 10.7206 42.6096 8.64457C43.0176 7.96629 43.5758 7.60786 44.5833 7.27453C45.1254 7.09509 45.4897 6.59186 45.4895 6.02243C45.4895 5.4531 45.1253 4.95009 44.5833 4.77076C43.1453 4.29483 42.6213 3.77088 42.1454 2.33288C41.966 1.79074 41.4627 1.42638 40.8933 1.42649C40.324 1.42649 39.8208 1.79085 39.6416 2.33288C39.4289 2.97564 39.2059 3.43514 38.8966 3.78995C36.0973 1.34045 32.5394 0 28.7964 0C25.0943 0 21.5183 1.33639 18.7268 3.76343C18.3571 4.08547 17.8693 4.23761 17.3896 4.18072C13.3664 3.7084 10.1908 4.24956 7.95228 5.78994C7.57828 6.04742 7.4838 6.5592 7.74106 6.9333C7.90054 7.16491 8.15758 7.28943 8.41912 7.28943C8.57981 7.28943 8.74203 7.24241 8.88442 7.14453C10.7848 5.83685 13.5816 5.3892 17.1972 5.81372C18.1373 5.92399 19.0877 5.62925 19.8061 5.00391C22.2979 2.83731 25.4908 1.64418 28.7964 1.64418C31.9648 1.64418 34.9842 2.72058 37.4192 4.69568C37.3494 4.72078 37.2787 4.74577 37.204 4.77043C36.6618 4.94976 36.2974 5.45288 36.2974 6.02221C36.2972 6.59164 36.6615 7.09487 37.2037 7.27431C38.6417 7.75024 39.1657 8.27419 39.6415 9.71208C39.8209 10.2541 40.3241 10.6185 40.8934 10.6185C41.1467 10.6185 41.3866 10.546 41.5911 10.4183C42.1978 11.9841 42.5056 13.6378 42.5056 15.3534C42.5056 15.7273 42.4587 16.2463 42.3686 16.8808C41.0878 16.1933 40.4359 15.2514 39.8554 13.497C39.6368 12.8367 39.0477 12.41 38.3548 12.41C37.6617 12.4101 37.0727 12.8368 36.8544 13.497C36.0832 15.8279 35.1862 16.7247 32.8554 17.496C32.1952 17.7144 31.7685 18.3034 31.7685 18.9965C31.7685 19.6894 32.1952 20.2784 32.8554 20.4968C35.1863 21.2682 36.0832 22.1652 36.8544 24.4959C37.0729 25.1561 37.6619 25.5828 38.3549 25.5828C39.0479 25.5828 39.6369 25.1562 39.8555 24.4959C40.2961 23.1644 40.7783 22.3012 41.5449 21.6616C41.2029 25.8109 42.7446 29.0255 44.125 31.9013C45.7085 35.2003 46.8528 37.584 44.8655 40.3483C44.6005 40.7169 44.6846 41.2306 45.0532 41.4957C45.4243 41.7624 45.9372 41.6745 46.2006 41.308C48.757 37.7519 47.227 34.5645 45.6072 31.1901ZM38.5243 6.02243C39.6969 5.49552 40.391 4.77142 40.8935 3.65327C41.4097 4.80189 42.114 5.50626 43.2627 6.02243C42.1631 6.51645 41.4948 7.1955 40.9615 8.24734C40.9529 8.26433 40.8958 8.38654 40.8935 8.39159C40.3773 7.24285 39.6731 6.53859 38.5243 6.02243ZM38.3549 23.8009C37.4523 21.1841 36.1677 19.8993 33.5508 18.9967C36.167 18.0944 37.4517 16.8098 38.3549 14.1925C39.2472 16.7796 40.5137 18.084 43.1589 18.9967C40.5328 19.9025 39.2544 21.1941 38.3549 23.8009Z" fill="#66833B"/>
<path d="M39.8692 47.3478C39.5834 47.1696 39.2878 47.003 38.9858 46.8452C40.6191 46.0036 42.1303 45.0461 43.2971 44.1613C43.6589 43.887 43.7297 43.3713 43.4555 43.0095C43.1812 42.6476 42.6654 42.5767 42.3037 42.8511C40.9323 43.8908 39.0626 45.0338 37.0264 45.9716C35.0983 45.2325 33.0518 44.7338 31.439 44.2451C31.3066 44.2052 31.2176 44.0853 31.2176 43.9468V39.5601C31.4778 39.3815 31.7366 39.1945 31.9924 38.9972C34.3627 37.1694 36.2635 34.7541 37.3922 32.1485H39.5755C40.0297 32.1485 40.3976 31.7805 40.3976 31.3264C40.3976 30.8723 40.0297 30.5043 39.5755 30.5043H36.7272C31.2752 30.5043 26.8397 26.0687 26.8397 20.6167V12.7322C26.8397 9.72652 24.3952 7.25049 21.3577 7.25049C18.3353 7.25049 15.8764 9.70953 15.8764 12.732V14.1737C14.1744 16.1666 13.0578 18.7449 12.5368 21.8719C9.57925 22.4497 7.493 24.3771 7.493 26.6159C7.493 28.1496 8.46241 29.5228 10.0059 30.4265V32.5263C10.0059 32.9804 10.3738 33.3484 10.828 33.3484C11.2821 33.3484 11.65 32.9804 11.65 32.5263V31.1386C12.1238 31.2831 12.626 31.3911 13.1509 31.4575C13.9698 33.6392 15.2999 35.6868 17.0843 37.4673C17.877 38.2584 18.7297 38.9638 19.6008 39.5641V43.9468C19.6008 44.0853 19.5118 44.2051 19.3789 44.2453C17.3414 44.8623 14.6802 45.479 12.3656 46.5801C8.66574 45.0772 5.41135 42.8994 2.691 40.099C0.768946 38.1196 1.75984 36.1687 3.53567 33.1495C4.54991 31.4251 5.59868 29.6421 5.78261 27.7296C5.91721 26.3298 5.77494 24.5174 5.61019 22.4189C5.2864 18.2951 4.88335 13.163 6.65743 9.72005C6.86536 9.31635 6.70675 8.82068 6.30327 8.61264C5.89946 8.4046 5.4039 8.56309 5.19586 8.9668C3.20793 12.8254 3.63125 18.216 3.97127 22.5473C4.12999 24.5691 4.26711 26.3152 4.14621 27.5721C3.99725 29.1222 3.0423 30.7457 2.11882 32.3157C0.478473 35.1045 -1.38077 38.2655 1.51179 41.2443C4.09919 43.9079 7.13972 46.04 10.5672 47.5981C8.29262 49.1496 7.13928 51.2171 7.13928 53.7505V54.4038C7.13928 55.351 7.90975 56.1214 8.85691 56.1214H41.962C42.9092 56.1214 43.6797 55.351 43.6797 54.4038V53.7505C43.6796 51.0784 42.3976 48.9243 39.8692 47.3478ZM21.358 8.89467C22.4125 8.89467 23.369 9.32238 24.0634 10.0133C21.5972 10.2525 19.3528 11.1373 17.5245 12.5838C17.6029 10.5364 19.2919 8.89467 21.358 8.89467ZM11.6503 29.3999V27.8953C11.6503 27.4412 11.2823 27.0732 10.8282 27.0732C10.3741 27.0732 10.0061 27.4412 10.0061 27.8953V28.398C9.45802 27.8794 9.1374 27.2645 9.1374 26.616C9.1374 25.32 10.4456 24.1297 12.3139 23.613C12.2357 24.4611 12.1957 25.3437 12.1957 26.262C12.1957 27.4197 12.3359 28.5692 12.6081 29.694C12.2714 29.6164 11.9513 29.5171 11.6503 29.3999ZM13.8399 26.262C13.8399 22.2748 14.6205 18.0215 17.31 15.032C19.7177 12.3554 22.7609 11.6697 25.0246 11.5983C25.1357 11.9568 25.1957 12.3377 25.1957 12.7323V20.6168C25.1957 26.5971 29.7714 31.528 35.6056 32.0939C34.5656 34.2176 32.9578 36.1769 30.9887 37.6953C29.0479 39.1918 26.91 40.1216 25.4095 40.1216C23.8021 40.1216 20.8748 38.9268 18.2459 36.3035C16.6004 34.6614 13.8399 31.1736 13.8399 26.262ZM24.8585 49.9906C22.9956 49.7519 21.1916 48.3064 19.6951 45.8666C19.7484 45.8507 19.8027 45.8348 19.8554 45.8188C20.6868 45.5675 21.2454 44.8153 21.2454 43.9466V40.5594C22.7176 41.3298 24.1702 41.7655 25.4093 41.7655C26.6235 41.7655 28.0842 41.3289 29.5735 40.5517V43.9467C29.5735 44.8153 30.1321 45.5676 30.963 45.8187C31.0159 45.8347 31.0703 45.8507 31.1238 45.8667C29.6273 48.3066 27.8231 49.7521 25.9603 49.9907C25.7808 50.0096 25.5807 50.0213 25.3629 50.0193C25.1813 50.0177 25.0125 50.0068 24.8585 49.9906ZM25.4092 51.6192C26.4394 52.6886 27.2148 53.6992 27.6174 54.4773H23.2012C23.6038 53.6991 24.3791 52.6886 25.4092 51.6192ZM8.78347 54.4038V53.7505C8.78347 49.0536 13.8605 47.5251 18.0614 46.3358C19.5656 48.9315 21.4248 50.655 23.4354 51.3387C22.5758 52.3258 21.7634 53.4505 21.42 54.4773H8.85691C8.81635 54.4773 8.78347 54.4443 8.78347 54.4038ZM42.0354 54.4038C42.0354 54.4443 42.0025 54.4773 41.9619 54.4773H29.3986C29.0553 53.4505 28.2428 52.3259 27.3832 51.3388C29.394 50.6552 31.2532 48.9316 32.7574 46.3358C37.1763 47.5867 42.0354 49.1251 42.0354 53.7505V54.4038Z" fill="#66833B"/>
<path d="M28.9919 32.1738C28.7971 31.7637 28.3066 31.5891 27.8967 31.7837C26.2229 32.5784 24.5957 32.5784 22.9219 31.7837C22.5118 31.5891 22.0215 31.7636 21.8267 32.1738C21.632 32.5839 21.8065 33.0743 22.2168 33.2691C23.276 33.772 24.3427 34.0234 25.4094 34.0234C26.476 34.0234 27.5428 33.772 28.6019 33.2691C29.0121 33.0743 29.1866 32.584 28.9919 32.1738Z" fill="#66833B"/>
<path d="M22.7716 22.8998C23.045 22.5372 22.9727 22.0218 22.6101 21.7485C21.0823 20.5965 18.4018 20.5966 16.8742 21.7485C16.5116 22.0218 16.4392 22.5372 16.7126 22.8998C16.9858 23.2625 17.5015 23.3348 17.8639 23.0613C18.7941 22.36 20.6898 22.3599 21.6204 23.0613C21.9818 23.3339 22.4978 23.2632 22.7716 22.8998Z" fill="#66833B"/>
<path d="M19.742 24.3942C19.2879 24.3942 18.9199 24.7621 18.9199 25.2163V25.7292C18.9199 26.1834 19.2879 26.5513 19.742 26.5513C20.1961 26.5513 20.5641 26.1834 20.5641 25.7292V25.2163C20.5641 24.7621 20.1961 24.3942 19.742 24.3942Z" fill="#66833B"/>
</svg>
