<svg width="44" height="57" viewBox="0 0 44 57" fill="none" xmlns="http://www.w3.org/2000/svg">
<path d="M31.7208 36.9307C31.3589 36.9307 31.0131 37.1037 30.7957 37.3934C30.4701 37.8271 30.1854 38.2276 29.9362 38.5974C29.0622 37.1297 28.0459 35.7189 27.4358 34.9049C27.1698 34.5516 26.7644 34.3491 26.3233 34.3492C25.8823 34.3492 25.4769 34.5517 25.2102 34.906C24.6658 35.6314 23.6189 37.0727 22.723 38.574C21.5739 40.4998 21.0154 41.9335 21.0154 42.9572C21.0154 45.8842 23.3966 48.2653 26.3234 48.2653C28.2355 48.2653 29.9972 47.2179 30.9317 45.591C31.1852 45.6512 31.4492 45.6839 31.7208 45.6839C33.6079 45.6839 35.1431 44.1487 35.1431 42.2616C35.1431 41.5589 34.7098 40.1438 32.6459 37.3934C32.4285 37.1037 32.0827 36.9307 31.7208 36.9307ZM26.3234 46.5954C24.3173 46.5954 22.6852 44.9634 22.6852 42.9574C22.6852 41.8198 24.0728 39.2505 26.3232 36.2073C27.0427 37.1831 28.1389 38.7453 28.9497 40.2368C28.4412 41.2229 28.2985 41.8592 28.2985 42.2617C28.2985 43.277 28.7433 44.19 29.448 44.8173C28.7998 45.9003 27.6121 46.5954 26.3234 46.5954ZM33.4732 42.2616C33.4732 43.2279 32.6871 44.014 31.7208 44.014C30.7545 44.014 29.9684 43.2279 29.9684 42.2616C29.9684 41.4993 31.2811 39.5721 31.7208 38.9561C32.9276 40.6464 33.4732 41.8194 33.4732 42.2616Z" fill="#66833B"/>
<path d="M42.6713 44.4379C43.1324 44.4379 43.5062 44.0641 43.5062 43.6029V32.8769C43.5062 31.0463 42.0169 29.557 40.1863 29.557H38.4865V24.9048C38.4865 23.5233 37.3626 22.3995 35.9811 22.3995H25.582L25.6562 21.4219C25.6955 20.9115 25.5364 20.4149 25.2098 20.0256L21.8361 15.9831C21.5716 15.6653 21.1819 15.4831 20.767 15.4831H19.7218V10.7861C19.7218 9.83453 18.9477 9.06047 17.9962 9.06047H17.4154V6.44893C17.4154 6.23106 17.5205 6.02455 17.6966 5.89619L19.7217 4.42043C20.3608 3.95485 20.5648 3.07614 20.196 2.37644L19.3952 0.857148C19.0274 0.159233 18.2173 -0.165957 17.4692 0.083307L8.63251 3.02894C8.23318 3.16197 7.91367 3.46222 7.75603 3.85243C7.59838 4.24286 7.61976 4.68071 7.81469 5.05388L8.24687 5.88127V9.06047H7.66607C6.71455 9.06047 5.94049 9.83453 5.94049 10.7861V15.4832H4.89512C4.48031 15.4832 4.09066 15.6655 3.82659 15.9824L0.453684 20.0241C0.125711 20.4149 -0.0332656 20.9113 0.00581054 21.421L0.463369 27.4504C0.496656 27.8887 0.862591 28.2223 1.2951 28.2223C1.31625 28.2223 1.33763 28.2215 1.35911 28.2199C1.8189 28.1851 2.16335 27.784 2.1285 27.3242L1.67083 21.294C1.66527 21.2216 1.68731 21.1518 1.73429 21.0958L5.02459 17.1532H20.6373L23.929 21.0975C23.9746 21.1518 23.9967 21.2216 23.991 21.2948L23.9072 22.3997H20.1767C18.7952 22.3997 17.6713 23.5235 17.6713 24.905V29.5572H15.9715C14.1408 29.5572 12.6516 31.0465 12.6516 32.8771V49.4167H4.0635C3.91877 49.4167 3.79698 49.3041 3.78607 49.1597L2.42341 31.2151C2.38857 30.7552 1.98745 30.4101 1.52766 30.4457C1.06788 30.4805 0.723432 30.8817 0.758277 31.3416L2.12093 49.285C2.19652 50.295 3.04985 51.0863 4.0635 51.0863H12.6516V51.666C12.6516 52.4334 13.2759 53.0579 14.0433 53.0579H14.6885V55.6083C14.6885 56.3757 15.3129 57 16.0802 57H40.0775C40.8448 57 41.4692 56.3758 41.4692 55.6083V53.0579H42.1144C42.8818 53.0579 43.5061 52.4335 43.5061 51.666V47.4994C43.5061 47.0381 43.1323 46.6644 42.6712 46.6644C42.2101 46.6644 41.8362 47.0381 41.8362 47.4994V51.388H14.3214V32.8769C14.3214 31.967 15.0616 31.2269 15.9715 31.2269H40.1862C41.0961 31.2269 41.8363 31.967 41.8363 32.8769V43.6029C41.8363 44.0641 42.2102 44.4379 42.6713 44.4379ZM9.7537 5.15931L9.42272 4.52574L17.944 1.68532L18.692 3.10453L16.7131 4.54656C16.1072 4.98809 15.7454 5.69914 15.7454 6.44905V9.06058H9.91668V5.82349C9.91679 5.59327 9.86035 5.3636 9.7537 5.15931ZM7.61041 10.7861C7.61041 10.7554 7.63535 10.7304 7.66607 10.7304H17.9962C18.0269 10.7304 18.0519 10.7554 18.0519 10.7861V15.4832H7.61041V10.7861ZM39.7994 55.3301H16.3585V53.0579H39.7994V55.3301ZM19.3413 24.9048C19.3413 24.4441 19.716 24.0694 20.1767 24.0694H35.981C36.4417 24.0694 36.8164 24.4441 36.8164 24.9048V29.557H19.3413V24.9048Z" fill="#66833B"/>
</svg>
