<svg width="52" height="49" viewBox="0 0 52 49" fill="none" xmlns="http://www.w3.org/2000/svg">
<path d="M27.1974 39.1804C26.985 38.6709 26.3846 38.4207 25.8739 38.6321C25.364 38.8432 25.114 39.4458 25.3257 39.9557C25.5374 40.4657 26.1385 40.7158 26.6492 40.504C27.1584 40.2928 27.4096 39.6901 27.1974 39.1804Z" fill="#66833B"/>
<path d="M51.8859 24.3943C51.8859 23.8347 51.4322 23.3809 50.8725 23.3809H44.8022C44.4001 23.3809 44.035 23.5416 43.774 23.8335C43.2309 24.4405 43.3348 25.3712 43.4265 26.1923C43.5711 27.489 43.2879 28.834 41.761 28.834C40.2339 28.834 39.9496 27.4896 40.0945 26.1923C40.1862 25.3711 40.2901 24.4405 39.747 23.8334C39.486 23.5416 39.1209 23.3809 38.7187 23.3809H21.9029C26.9713 21.7944 31.7638 19.3647 35.7774 16.2943C36.0394 16.726 36.3295 17.1331 36.6364 17.4935C38.1111 19.2249 40.1461 19.6234 41.9386 18.0967C43.7241 16.5757 43.8466 14.4166 42.3338 12.6406C41.983 12.2287 41.5583 11.8306 41.0915 11.4683C41.3407 11.2019 41.5851 10.9343 41.8223 10.6674L45.6721 6.33611C46.042 5.92001 46.007 5.2834 45.5936 4.91047L40.4405 0.261018C40.2409 0.081039 39.9776 -0.0126999 39.7093 0.00138623C39.4408 0.0152697 39.1888 0.135256 39.0088 0.334996L36.5524 3.06103C28.2715 12.2496 18.2787 16.9085 6.85166 16.9085H1.0135C0.453798 16.9085 0.000101339 17.3623 0.000101339 17.9219V24.3944V32.9567C0.000101339 32.9575 0 32.9582 0 32.959V46.1544C0 46.4687 0.145827 46.7652 0.394717 46.957C0.643708 47.1489 0.967386 47.2143 1.2714 47.1344C2.99843 46.6796 4.79923 46.9236 6.34273 47.8212C9.0492 49.3921 12.4094 49.3921 15.1208 47.8158C17.1376 46.617 19.7771 46.6188 21.8451 47.8209C24.5498 49.3931 27.9102 49.393 30.6153 47.8208C32.6765 46.622 35.3163 46.6204 37.3469 47.8209C40.024 49.3772 43.4408 49.3776 46.117 47.8209C47.4364 47.0541 49.1886 46.7488 50.6898 47.0234C50.9858 47.0777 51.2902 46.9976 51.5212 46.8051C51.7522 46.6126 51.8858 46.3274 51.8858 46.0266V32.8326C51.8858 32.832 51.8859 32.8314 51.8859 32.8308V24.3943ZM41.7611 30.8609C44.1039 30.8609 45.5025 29.3318 45.5025 26.7708C45.498 26.314 45.4174 25.8628 45.387 25.4078H49.8591V31.7012C48.2039 31.6303 46.5314 32.0405 45.0984 32.8731C43.0224 34.0805 40.4427 34.0806 38.3719 32.8765C35.7478 31.3265 32.385 31.3112 29.7314 32.7975C27.609 33.986 24.997 34.1125 22.8637 32.8728C20.169 31.3073 16.7232 31.3093 14.0938 32.8729C12.0868 34.0397 9.50493 34.0535 7.47439 32.9362C5.79195 32.0035 3.95751 31.5257 2.02689 31.7412V25.4078H6.96617C6.87436 25.9417 6.83879 26.4528 6.86027 26.9368C6.91206 29.1482 8.30132 30.861 10.6002 30.861C12.5557 30.861 13.987 29.6147 14.277 27.6851C14.399 26.8954 14.3512 26.108 14.231 25.4078H38.1341C38.1038 25.8629 38.0233 26.314 38.0186 26.7708C38.0186 29.3318 39.4177 30.8609 41.7611 30.8609ZM11.4994 23.5921C12.1408 24.7269 12.5136 26.272 12.2402 27.566C12.1163 28.1564 11.8181 28.8341 10.6002 28.8341C9.77844 28.8341 9.16534 28.4541 8.9731 27.6272C8.77731 26.6568 8.92577 25.6372 9.22442 24.7034C9.64721 23.3829 10.2951 22.6796 10.6002 22.6796C10.7737 22.6796 11.1391 22.9581 11.4994 23.5921ZM41.4014 15.4257C41.3423 15.7852 41.081 16.1646 40.6243 16.5537C39.6891 17.3503 38.9369 17.0688 38.1794 16.1792C37.5674 15.4606 37.0788 14.5901 36.7777 13.695C36.6581 13.3395 36.2472 12.1978 36.6338 11.8683C37.0795 11.4889 38.3067 12.1312 38.6776 12.3208C39.4663 12.724 40.2148 13.2787 40.7909 13.9549C41.2648 14.5114 41.4703 15.0062 41.4014 15.4257ZM2.02689 18.9352H6.85166C18.8771 18.9352 29.3765 14.0509 38.058 4.41776L39.8357 2.44498L43.4891 5.74125L40.3073 9.32086C40.0497 9.61079 39.7834 9.90184 39.5111 10.1909C37.9856 9.39504 36.3755 9.42514 35.3197 10.3248C34.2071 11.2723 33.9487 12.9417 34.5934 14.6494C28.7532 19.1328 21.1639 22.1939 13.5425 23.1389C13.0085 21.966 12.0236 20.6527 10.6003 20.6527C9.07829 20.6527 8.07411 22.1232 7.55181 23.3808H2.02689V18.9352ZM45.0983 46.0688C43.0224 47.2763 40.4426 47.2762 38.3721 46.0724C35.7185 44.5037 32.2552 44.5224 29.5967 46.0687C27.5516 47.2573 24.9088 47.2573 22.8637 46.0687C20.1701 44.5032 16.7243 44.5049 14.0937 46.0687C12.0503 47.2566 9.40713 47.2567 7.36099 46.0688C5.7273 45.1187 3.87218 44.7311 2.02669 44.9369V33.7864C3.59086 33.5591 5.08744 33.9251 6.4536 34.6873C9.11487 36.1815 12.4769 36.1772 15.1122 34.6255C17.1326 33.4511 19.7767 33.4524 21.8497 34.6281C24.5391 36.1902 27.9025 36.1515 30.603 34.6321C32.6711 33.4679 35.2852 33.4125 37.3469 34.6255C40.0523 36.1983 43.4129 36.1983 46.117 34.6255C47.2322 33.976 48.5735 33.6786 49.859 33.7358V44.9015C48.2117 44.844 46.4995 45.2545 45.0983 46.0688Z" fill="#66833B"/>
<path d="M10.5997 37.9087C8.81356 37.9087 7.36035 39.3619 7.36035 41.148C7.36035 42.9341 8.81346 44.3873 10.5997 44.3873C12.3859 44.3873 13.839 42.9341 13.839 41.148C13.839 39.3619 12.3859 37.9087 10.5997 37.9087ZM10.5997 42.3605C9.93103 42.3605 9.38714 41.8167 9.38714 41.148C9.38714 40.4794 9.93103 39.9355 10.5997 39.9355C11.2683 39.9355 11.8122 40.4794 11.8122 41.148C11.8122 41.8167 11.2683 42.3605 10.5997 42.3605Z" fill="#66833B"/>
<path d="M41.7767 37.9087C39.9906 37.9087 38.5374 39.3619 38.5374 41.148C38.5374 42.9341 39.9905 44.3873 41.7767 44.3873C43.5629 44.3873 45.016 42.9341 45.016 41.148C45.016 39.3619 43.5628 37.9087 41.7767 37.9087ZM41.7767 42.3605C41.108 42.3605 40.5641 41.8167 40.5641 41.148C40.5641 40.4794 41.108 39.9355 41.7767 39.9355C42.4453 39.9355 42.9892 40.4794 42.9892 41.148C42.9892 41.8167 42.4452 42.3605 41.7767 42.3605Z" fill="#66833B"/>
</svg>
