<svg width="52" height="56" viewBox="0 0 52 56" fill="none" xmlns="http://www.w3.org/2000/svg">
<path d="M50.2237 36.5521H47.7354C46.9023 36.5521 46.1226 36.3446 45.3621 36.0185V34.4063C45.3621 32.8022 44.7267 31.2835 43.5731 30.1299C42.4195 28.9762 40.9008 28.341 39.2966 28.341C38.8863 28.341 38.4984 28.184 38.2029 27.8988L35.9717 25.5947C35.4995 25.107 34.793 24.9679 34.1707 25.2403C33.5601 25.5081 33.1856 26.1048 33.2081 26.7681C33.2074 27.6354 32.502 28.3409 31.6352 28.3409H31.062C29.5884 28.3409 28.2364 28.8695 27.1843 29.7464V23.3273C27.1843 18.7824 23.4863 15.085 18.941 15.085H18.8154V9.798C18.8154 9.19393 18.3256 8.70415 17.7216 8.70415H14.8139V4.23435C16.5425 4.1392 18.2412 3.67283 19.7634 2.8698C21.5406 1.93225 23.2267 1.94942 24.775 2.92022C25.2868 3.24146 25.9618 3.08669 26.2828 2.57471C26.6037 2.06295 26.4491 1.38778 25.9373 1.06688C23.7439 -0.308719 21.1887 -0.355531 18.7427 0.934865C17.2177 1.73942 15.555 2.06579 13.8422 2.06579C12.2825 2.06579 10.8027 1.88937 9.3959 1.15394C8.86051 0.873944 8.19956 1.08121 7.91978 1.61659C7.63989 2.15198 7.84694 2.81293 8.38233 3.09271C9.69241 3.7775 11.1503 4.17004 12.6262 4.2407V8.70415H9.4624C8.85832 8.70415 8.36854 9.19393 8.36854 9.798V15.085H8.2432C3.69783 15.085 0 18.7824 0 23.3273V51.9282C0 54.1732 1.82633 55.9994 4.07134 55.9994H23.1132C25.3582 55.9994 27.1845 54.1731 27.1845 51.9282V46.247C29.9153 47.1843 32.7615 47.6599 35.6553 47.6599H50.2238C50.8279 47.6599 51.3177 47.1702 51.3177 46.5661V37.646C51.3176 37.0419 50.8278 36.5521 50.2237 36.5521ZM10.5562 10.8918H16.6278V15.0846H10.5562V10.8918ZM31.062 30.5287H31.6352C33.2963 30.5287 34.7093 29.4459 35.2058 27.9486L36.6424 29.4322C36.6491 29.4391 36.6558 29.4459 36.6625 29.4525C37.3706 30.1465 38.3061 30.5288 39.2966 30.5288C41.3986 30.5288 43.1744 32.3045 43.1744 34.4064V35.0803L40.456 33.9143C39.4935 33.5013 38.4743 33.292 37.4267 33.292H33.5383C31.6203 33.292 30.06 34.8523 30.06 36.7702C30.06 37.4191 30.0697 38.0488 30.2903 38.6699C29.7868 38.5386 29.2899 38.381 28.8041 38.1986L27.1844 37.5901V34.4064C27.1843 32.2682 28.9239 30.5287 31.062 30.5287ZM8.2432 17.2727H18.9411C22.2802 17.2727 24.9967 19.9888 24.9967 23.3273V27.0026H18.2274C17.6233 27.0026 17.1336 27.4923 17.1336 28.0964C17.1336 28.7005 17.6233 29.1903 18.2274 29.1903H24.9967V36.7678L20.8367 35.2046C18.6119 34.3685 16.0778 35.679 15.4676 37.9686C14.9343 39.9694 16.0422 42.1149 17.9834 42.8358L19.967 43.5733H2.18759V29.1903H8.61256C9.21663 29.1903 9.70641 28.7005 9.70641 28.0964C9.70641 27.4923 9.21674 27.0026 8.61256 27.0026H2.18759V23.3273C2.18759 19.9888 4.90412 17.2727 8.2432 17.2727ZM23.1129 53.8118H4.07123C3.03262 53.8118 2.1877 52.9669 2.1877 51.9283V45.7611H24.9967V51.9283C24.9966 52.9669 24.1517 53.8118 23.1129 53.8118ZM49.1299 45.4722H35.6552C32.7989 45.4722 29.9931 44.9674 27.3159 43.9718L18.7463 40.7851C17.8489 40.4515 17.3341 39.457 17.5817 38.532C17.8657 37.4673 19.0379 36.866 20.0668 37.2525L28.1259 40.2808C30.0283 40.9957 32.0439 41.3463 34.0748 41.3439H38.7805C39.3845 41.3439 39.8743 40.8541 39.8743 40.2501C39.8743 39.646 39.3845 39.1562 38.7805 39.1562H34.085C34.0814 39.1562 34.078 39.1557 34.0744 39.1557C33.0672 39.1557 32.2478 38.3362 32.2478 37.329C32.2421 36.3291 33.0697 35.4795 34.0748 35.4795H37.3252C38.144 35.4806 38.941 35.6449 39.6946 35.9683L44.706 38.1173C45.6685 38.5303 46.6877 38.7396 47.7354 38.7396H49.1299V45.4722Z" fill="#66833B"/>
<path d="M12.4724 28.5149C12.7018 29.0648 13.3496 29.3354 13.901 29.1066C14.4512 28.8782 14.7215 28.229 14.4928 27.6781C14.2643 27.1278 13.6153 26.8575 13.0643 27.0862C12.5147 27.3143 12.2433 27.9643 12.4724 28.5149Z" fill="#66833B"/>
</svg>
