<svg width="52" height="48" viewBox="0 0 52 48" fill="none" xmlns="http://www.w3.org/2000/svg">
<path d="M21.1055 30.1526C20.3022 31.964 20.5176 34.0782 21.6676 35.67C22.7461 37.1628 24.5485 37.9888 26.384 37.8086C29.0827 37.5437 31.1575 35.2809 31.3174 32.4284C31.498 29.2088 31.4586 26.1371 31.2008 23.2986C31.1508 22.7484 30.6654 22.3438 30.114 22.3929C29.5638 22.4429 29.1583 22.9295 29.2083 23.4797C29.4574 26.2211 29.4949 29.1942 29.3198 32.3165C29.2155 34.1772 27.8985 35.6496 26.1884 35.8176C25.0326 35.9314 23.9768 35.4503 23.2894 34.4985C22.5434 33.466 22.4107 32.1446 22.9343 30.9638C24.9137 26.5002 25.6058 21.5081 25.0503 15.702C24.7301 12.3561 24.0121 8.99761 23.1755 5.84413C24.8782 8.34188 26.4463 11.2689 27.6053 15.0567C27.767 15.5852 28.3271 15.8822 28.8546 15.7206C29.3828 15.5589 29.6801 14.9996 29.5185 14.4714C27.5417 8.01127 24.3433 3.80173 21.5004 0.363052C21.1962 -0.00497394 20.6742 -0.106809 20.254 0.120369C19.8339 0.347347 19.6327 0.839615 19.7737 1.29587C22.5818 10.3783 25.2319 20.8474 21.1055 30.1526Z" fill="#66833B"/>
<path d="M10.4632 36.1632C8.70012 36.1632 7.26562 37.5976 7.26562 39.3608C7.26562 41.124 8.70012 42.5584 10.4632 42.5584C12.2264 42.5584 13.6609 41.124 13.6609 39.3608C13.6609 37.5976 12.2264 36.1632 10.4632 36.1632ZM10.4632 40.5577C9.80319 40.5577 9.26631 40.0207 9.26631 39.3608C9.26631 38.7009 9.80319 38.1639 10.4632 38.1639C11.1232 38.1639 11.6602 38.7008 11.6602 39.3608C11.6602 40.0208 11.1231 40.5577 10.4632 40.5577Z" fill="#66833B"/>
<path d="M41.2385 36.1632C39.4753 36.1632 38.0408 37.5976 38.0408 39.3608C38.0408 41.124 39.4753 42.5584 41.2385 42.5584C43.0016 42.5584 44.4361 41.124 44.4361 39.3608C44.4361 37.5976 43.0016 36.1632 41.2385 36.1632ZM41.2385 40.5577C40.5784 40.5577 40.0415 40.0207 40.0415 39.3608C40.0415 38.7009 40.5784 38.1639 41.2385 38.1639C41.8985 38.1639 42.4354 38.7008 42.4354 39.3608C42.4354 40.0208 41.8985 40.5577 41.2385 40.5577Z" fill="#66833B"/>
<path d="M50.2172 23.3233H45.8244C45.83 14.1757 42.6873 9.58399 39.7162 5.99116C39.4121 5.62324 38.8902 5.5216 38.4698 5.74858C38.0497 5.97556 37.8485 6.46783 37.9896 6.92408C39.5857 12.0882 41.1041 18.0097 39.1426 23.3234H35.3106C34.777 23.3234 34.2602 23.5451 33.8926 23.9317C33.5241 24.3193 33.3281 24.8484 33.3551 25.3832C33.4456 27.1839 33.4553 29.087 33.3839 31.0395V31.0402V31.0403C33.3655 31.5525 33.3423 32.057 33.3148 32.5406C33.106 36.2604 30.1474 39.4491 26.5785 39.8C24.2513 40.03 21.9556 39.0556 20.4447 37.2815C18.9989 35.584 18.3683 33.3784 18.7146 31.2304C18.8212 30.5846 19.0155 29.9316 19.2767 29.3421C19.7811 28.2046 20.1921 26.9993 20.4984 25.7595C20.6449 25.1671 20.5135 24.5524 20.1383 24.0732C19.7653 23.5969 19.2042 23.3236 18.5989 23.3236H13.6602C13.6658 14.1771 10.5236 9.58489 7.55308 5.99156C7.24888 5.62354 6.727 5.5219 6.30676 5.74878C5.88661 5.97576 5.68535 6.46793 5.82629 6.92418C7.42194 12.0889 8.93956 18.0107 6.97849 23.3236H1.00034C0.447953 23.3236 0 23.7714 0 24.3239V44.3028C0 44.613 0.143849 44.9057 0.389733 45.095C0.635217 45.2843 0.954727 45.349 1.25503 45.2701C2.95951 44.8211 4.73742 45.0618 6.26114 45.9481C8.93286 47.499 12.2497 47.4988 14.9259 45.9429C16.917 44.7599 19.5227 44.7618 21.5639 45.9479C24.2337 47.4993 27.5508 47.4993 30.221 45.9477C32.2558 44.7643 34.8617 44.7629 36.866 45.9477C39.513 47.4868 42.8759 47.4876 45.5228 45.9479C46.8258 45.1912 48.5553 44.8893 50.037 45.1607C50.3286 45.2142 50.6296 45.1352 50.8576 44.9451C51.0856 44.755 51.2175 44.4735 51.2175 44.1766V24.3238C51.2175 23.7711 50.7696 23.3233 50.2172 23.3233ZM41.4187 11.9964C41.6377 12.4252 41.8485 12.8765 42.0488 13.3547C43.2437 16.2089 43.8269 19.4781 43.8242 23.3232H41.2591C42.4497 19.5902 42.1948 15.711 41.4187 11.9964ZM49.2168 25.324V30.0338C47.9067 29.9794 46.5204 30.1008 45.3828 30.7532C43.029 32.1034 40.5776 32.6347 37.8766 31.1954C37.0849 30.7735 36.2924 30.418 35.4106 30.2258C35.4518 28.5404 35.4335 26.8956 35.3555 25.3241H49.2168V25.324ZM9.25497 11.9965C9.47394 12.4252 9.68471 12.8766 9.88488 13.3547C11.0798 16.209 11.6629 19.4782 11.6602 23.3233H9.09511C10.2854 19.5908 10.0306 15.7113 9.25497 11.9965ZM2.00068 25.324H18.5451C18.2681 26.4348 17.899 27.5134 17.4478 28.5311C17.2204 29.0443 17.0333 29.5949 16.8954 30.1537C15.7662 30.3226 14.6702 30.7168 13.6961 31.3132C11.7318 32.3548 9.19395 32.3313 7.27219 31.1961C5.68274 30.2579 3.83781 29.8546 2.00078 30.0707V25.324H2.00068ZM49.2168 43.0659C47.5908 43.0095 45.9011 43.4145 44.5174 44.218C42.4681 45.4099 39.9218 45.4098 37.8779 44.2216C35.2568 42.6723 31.8418 42.6905 29.2155 44.2178C27.1968 45.3909 24.5878 45.3909 22.569 44.2178C19.9101 42.6729 16.5087 42.6749 13.9122 44.2179C11.8949 45.3907 9.28608 45.3905 7.26619 44.218C5.65383 43.2802 3.82221 42.8974 2.00068 43.1008V32.0915C3.47699 31.8679 4.9795 32.1641 6.26374 32.9237C8.68707 34.4069 12.2693 34.5363 14.7171 33.0338C15.3057 32.6725 15.9502 32.4035 16.6221 32.243C16.5854 34.53 17.3919 36.7823 18.9216 38.5784C20.8534 40.8465 23.8016 42.0848 26.775 41.7907C29.0181 41.5701 31.1264 40.4963 32.7114 38.7669C34.2624 37.0746 35.1861 34.9032 35.3124 32.6532C35.3197 32.5262 35.3266 32.3978 35.3332 32.2683C36.0062 32.4566 36.5826 32.7819 37.1973 33.1037C39.7922 34.4633 42.9877 34.3967 45.5259 32.9205C46.6325 32.272 47.9376 31.967 49.2168 32.0382V43.0659Z" fill="#66833B"/>
<path d="M29.2021 17.9934C28.6995 18.2026 28.4517 18.7961 28.6609 19.2999C28.87 19.8037 29.4631 20.0492 29.9673 19.8411C30.4713 19.633 30.7171 19.0382 30.5085 18.5346C30.3002 18.0318 29.7052 17.7836 29.2021 17.9934Z" fill="#66833B"/>
</svg>
