<svg width="50" height="58" viewBox="0 0 50 58" fill="none" xmlns="http://www.w3.org/2000/svg">
<path d="M47.6861 39.9658C47.2498 39.1031 46.3782 38.5673 45.4116 38.5673H44.7824V34.1254C44.7824 33.0324 43.8931 32.143 42.8 32.143H42.4778C42.6318 29.5249 41.8822 26.8336 40.4317 24.9297C40.1831 24.6037 39.821 24.3973 39.4123 24.3486C39.0068 24.2998 38.5934 24.4197 38.2776 24.6762C36.6667 25.9819 34.0577 27.2928 28.1331 25.8278C24.7818 24.9977 21.5301 24.3613 18.5886 25.6725C14.6119 27.4447 13.0592 30.0524 12.4838 32.143H11.8656C10.7725 32.143 9.88317 33.0323 9.88317 34.1254V38.5673H9.25401C8.28727 38.5673 7.4158 39.1031 6.97944 39.9658C6.25296 41.4018 5.03406 44.2646 5.03406 47.3011C5.03406 52.1257 9.97199 55.8482 12.0951 57.2247C12.8775 57.732 13.7861 58.0001 14.7224 58.0001H39.9427C40.8791 58.0001 41.7877 57.732 42.5702 57.2246C43.4037 56.6841 44.1992 56.0954 44.9347 55.475C45.2933 55.1724 45.3387 54.6364 45.0361 54.2777C44.7336 53.9192 44.1976 53.8736 43.839 54.1762C43.1671 54.7429 42.4087 55.3041 41.6458 55.799C41.1392 56.1274 40.5503 56.3009 39.9427 56.3009H14.7227C14.1151 56.3009 13.5262 56.1274 13.0197 55.799C11.1296 54.5735 6.73339 51.2922 6.73339 47.3011C6.73339 44.6172 7.83754 42.0338 8.49571 40.7328C8.64116 40.4452 8.93184 40.2665 9.25401 40.2665H45.4115C45.7337 40.2665 46.0243 40.4452 46.1698 40.7329C46.8279 42.0339 47.9321 44.6173 47.9321 47.3012C47.9321 48.6496 47.4253 50.0421 46.426 51.4403C46.1532 51.8221 46.2415 52.3527 46.6231 52.6255C47.0051 52.8984 47.5356 52.8101 47.8084 52.4283C49.018 50.736 49.6312 49.0109 49.6312 47.3011C49.6314 44.2646 48.4126 41.4019 47.6861 39.9658ZM19.2804 27.2246C21.7293 26.1326 24.6722 26.721 27.725 27.4773C31.171 28.3293 35.5751 28.9366 39.1962 26.1166C40.3312 27.7016 40.9187 29.9817 40.7728 32.143H14.2643C14.837 30.5163 16.1917 28.6009 19.2804 27.2246ZM43.0833 38.5673H11.5824V34.1254C11.5824 33.9693 11.7095 33.8422 11.8656 33.8422H42.8C42.9562 33.8422 43.0832 33.9693 43.0832 34.1254V38.5673H43.0833Z" fill="#66833B"/>
<path d="M34.3071 20.2223C34.9655 20.2223 35.5013 19.6866 35.5013 19.0281V18.729C35.5013 15.8729 33.1777 13.5492 30.3214 13.5492H29.3556C28.8218 12.5506 28.1306 11.662 27.3207 10.9095C27.7333 10.2956 28.0385 9.56311 28.227 8.71622C28.8698 5.81746 27.8077 2.04701 23.9842 0.157481C23.5495 -0.0562808 23.0522 -0.0522027 22.6198 0.168356C22.1874 0.389028 21.8924 0.789363 21.8101 1.26832C21.7217 1.78964 21.554 2.0964 21.2494 2.29419C20.1329 3.01942 17.5664 2.22928 16.9986 2.13095C16.5363 2.05098 16.0966 2.36057 16.0164 2.82287C15.9362 3.28517 16.246 3.72493 16.7083 3.80514C17.4853 3.93994 20.3894 4.8787 22.1747 3.71927C22.8306 3.29333 23.2459 2.65952 23.4394 1.78748C26.4601 3.39472 27.0204 6.30752 26.568 8.34771C26.439 8.92669 26.2374 9.43589 25.9769 9.85662C24.3517 8.78872 22.4242 8.18345 20.4125 8.18345H12.8066C12.7068 7.77519 12.6761 7.36262 12.7211 6.96704C12.8102 6.1786 13.2032 5.37816 13.7995 4.77086C14.1282 4.436 14.1232 3.89814 13.7885 3.5694C13.4537 3.24066 12.9159 3.24564 12.587 3.58039C11.73 4.4531 11.1635 5.61797 11.0328 6.77537C10.9801 7.23733 10.9962 7.71175 11.0741 8.18334H1.41602C0.635281 8.18334 0 8.81851 0 9.59936V18.8066C0 19.5874 0.635168 20.2225 1.41602 20.2225C2.38366 20.2226 32.6619 20.2223 34.3071 20.2223ZM19.5991 16.203V18.5234H1.69911V9.88256H20.4128C23.2102 9.88256 25.8129 11.2866 27.3701 13.5492H22.2528C20.7896 13.5492 19.5991 14.7397 19.5991 16.203ZM21.2982 16.203C21.2982 15.6767 21.7264 15.2484 22.2528 15.2484H30.3215C32.1717 15.2484 33.6893 16.6993 33.7962 18.5231H21.2982V16.203Z" fill="#66833B"/>
<path d="M18.9227 43.1248C17.3097 43.1248 15.9973 44.4371 15.9973 46.0501V50.5167C15.9973 52.1297 17.3097 53.4421 18.9227 53.4421H35.7435C37.3565 53.4421 38.6688 52.1298 38.6688 50.5167V46.0501C38.6688 44.437 37.3565 43.1248 35.7435 43.1248H18.9227ZM36.9696 46.0501V50.5167C36.9696 51.1928 36.4197 51.7429 35.7435 51.7429H18.9227C18.2465 51.7429 17.6964 51.1928 17.6964 50.5167V46.0501C17.6964 45.374 18.2465 44.8239 18.9227 44.8239H35.7435C36.4197 44.824 36.9696 45.3741 36.9696 46.0501Z" fill="#66833B"/>
<path d="M24.4036 47.4341H21.4011C20.9319 47.4341 20.5515 47.8145 20.5515 48.2837C20.5515 48.7529 20.9319 49.1333 21.4011 49.1333H24.4036C24.8729 49.1333 25.2531 48.7529 25.2531 48.2837C25.2531 47.8145 24.8729 47.4341 24.4036 47.4341Z" fill="#66833B"/>
<path d="M33.2648 47.4341H30.2623C29.7931 47.4341 29.4127 47.8145 29.4127 48.2837C29.4127 48.7529 29.793 49.1333 30.2623 49.1333H33.2648C33.7341 49.1333 34.1145 48.7529 34.1145 48.2837C34.1143 47.8145 33.7341 47.4341 33.2648 47.4341Z" fill="#66833B"/>
</svg>
