<svg width="50" height="58" viewBox="0 0 50 58" fill="none" xmlns="http://www.w3.org/2000/svg">
<path d="M48.4446 28.3933C48.4147 28.3313 48.377 28.27 48.3396 28.2119C48.1011 27.8224 44.1264 21.3763 40.786 15.9596C40.2969 15.1664 39.4485 14.6928 38.5166 14.6928H38.5165C37.5844 14.6928 36.7357 15.1664 36.2462 15.9601L28.7218 28.1594C28.7094 28.1794 28.6978 28.1997 28.6868 28.2202C28.5871 28.3884 28.4933 28.5595 28.4027 28.7321L27.2467 27.315C26.3949 26.2724 25.9257 24.9556 25.9257 23.6075V13.9844C25.9257 13.3632 25.4222 12.8597 24.801 12.8597H22.2126L21.4751 11.5241C21.2589 11.1328 21.1446 10.6897 21.1446 10.2426V4.29961C21.1445 1.92873 19.2158 0 16.8449 0C14.474 0 12.5453 1.92873 12.5453 4.29961V10.2427C12.5453 10.6898 12.431 11.133 12.215 11.5243L11.4774 12.8598H8.88884C8.26763 12.8598 7.76408 13.3633 7.76408 13.9845L7.76419 23.6076C7.76419 24.9558 7.29506 26.2724 6.4426 27.3158L1.8284 32.9737C0.649322 34.417 0 36.2395 0 38.1056V49.4702C0 51.6187 0.857964 53.6543 2.41575 55.2019C3.96432 56.7402 5.9891 57.5875 8.11737 57.5875H11.7856C12.4068 57.5875 12.9104 57.084 12.9104 56.4628C12.9104 55.8416 12.4068 55.338 11.7856 55.338H8.11737C4.93667 55.338 2.24951 52.6509 2.24951 49.4702V38.1056C2.24951 36.7567 2.71865 35.4396 3.5711 34.3962L8.18541 28.7382C9.3645 27.2949 10.0138 25.4728 10.0138 23.6075V23.5079H12.5338V47.1168C12.5338 49.3239 14.3294 51.1195 16.5365 51.1195H17.1534C19.3605 51.1195 21.1561 49.3239 21.1561 47.1168V23.5079H23.6762V23.6075C23.6762 25.4729 24.3256 27.295 25.5041 28.7375L27.4659 31.1426C27.1414 32.3824 27.0272 33.6799 27.1323 34.9571C27.3933 38.1995 29.0209 41.0736 31.4404 42.992V49.47C31.4404 52.596 28.6984 55.3379 25.5726 55.3379H21.6787C21.0575 55.3379 20.5539 55.8415 20.5539 56.4627C20.5539 57.0839 21.0575 57.5874 21.6787 57.5874H25.5726C29.9727 57.5874 33.6899 53.8701 33.6899 49.47V44.3867C35.1125 45.0543 36.6943 45.4367 38.3617 45.4588C40.7115 45.4909 43.0424 44.7943 44.9784 43.4601C45.5352 43.0765 46.0575 42.6431 46.5388 42.1682C48.731 40.005 49.9383 37.1176 49.9383 34.0381C49.9383 32.0593 49.422 30.1093 48.4446 28.3933ZM14.1841 12.6118C14.5836 11.8883 14.7948 11.0692 14.7948 10.2427V4.29961C14.7948 3.16923 15.7145 2.24951 16.8449 2.24951C17.9753 2.24951 18.895 3.16923 18.895 4.29961V10.2427C18.895 11.0692 19.1061 11.8883 19.5058 12.6118L19.6427 12.8598H14.0472L14.1841 12.6118ZM23.6761 15.1092V21.2579H10.0137V15.1092H23.6761ZM18.9066 47.1168C18.9066 48.0836 18.1201 48.87 17.1534 48.87H16.5365C15.5698 48.87 14.7833 48.0834 14.7833 47.1168V23.5079H18.9066V47.1168ZM44.9588 40.5671C43.1987 42.304 40.868 43.2437 38.3915 43.2097C33.4317 43.144 29.3047 38.9222 29.3442 33.9635C29.3577 32.2884 29.8599 30.7513 30.6643 29.2948L38.1607 17.1408C38.2674 16.968 38.4293 16.9422 38.5164 16.9422C38.6032 16.9422 38.7648 16.968 38.8711 17.1403C42.4566 22.9546 46.3224 29.2241 46.414 29.3747C47.2418 30.7846 47.6885 32.402 47.6885 34.0379C47.6888 36.5112 46.7191 38.8298 44.9588 40.5671Z" fill="#66833B"/>
<path d="M42.6822 32.7769H39.641V29.7357C39.641 29.1145 39.1374 28.611 38.5162 28.611C37.895 28.611 37.3915 29.1145 37.3915 29.7357V32.7769H34.3503C33.7291 32.7769 33.2256 33.2805 33.2256 33.9017C33.2256 34.5229 33.7291 35.0265 34.3503 35.0265H37.3915V38.0677C37.3915 38.6889 37.895 39.1924 38.5162 39.1924C39.1374 39.1924 39.641 38.6889 39.641 38.0677V35.0265H42.6822C43.3034 35.0265 43.807 34.5229 43.807 33.9017C43.807 33.2805 43.3034 32.7769 42.6822 32.7769Z" fill="#66833B"/>
<path d="M17.8831 56.0332C17.6508 55.4666 16.9788 55.1896 16.4142 55.4247C15.848 55.6604 15.5731 56.3258 15.8068 56.8925C16.0405 57.459 16.7086 57.7363 17.2746 57.501C17.8395 57.2661 18.1191 56.5996 17.8831 56.0332Z" fill="#66833B"/>
</svg>
