<svg width="36" height="36" viewBox="0 0 36 36" fill="none" xmlns="http://www.w3.org/2000/svg">
<g clip-path="url(#clip0_81_555)">
<path d="M17.7875 21.3498C19.7501 21.3498 21.3501 19.7527 21.3501 17.7887C21.3501 17.0134 21.0965 16.2976 20.6766 15.7129C20.0296 14.8158 18.9777 14.2275 17.7897 14.2275C16.601 14.2275 15.5498 14.8151 14.9014 15.7122C14.4801 16.2969 14.2286 17.0127 14.2278 17.788C14.2257 19.752 15.8243 21.3498 17.7875 21.3498Z" fill="#FDFFFC"/>
<path d="M25.564 13.4317V10.4467V10.0024L25.1176 10.0039L22.134 10.0132L22.1454 13.4432L25.564 13.4317Z" fill="#FDFFFC"/>
<path d="M17.7885 0C7.97994 0 0 7.97994 0 17.7885C0 27.5963 7.97994 35.5769 17.7885 35.5769C27.5963 35.5769 35.5769 27.5963 35.5769 17.7885C35.5769 7.97994 27.5977 0 17.7885 0ZM27.9051 15.7127V23.9957C27.9051 26.1532 26.151 27.9065 23.995 27.9065H11.5819C9.42518 27.9065 7.67184 26.1532 7.67184 23.9957V15.7127V11.5826C7.67184 9.42589 9.42518 7.67255 11.5819 7.67255H23.9943C26.151 7.67255 27.9051 9.42589 27.9051 11.5826V15.7127Z" fill="#FDFFFC"/>
<path d="M23.3217 17.7882C23.3217 20.8384 20.8396 23.3219 17.7879 23.3219C14.7363 23.3219 12.2549 20.8384 12.2549 17.7882C12.2549 17.0545 12.4011 16.353 12.6619 15.7124H9.64175V23.9954C9.64175 25.0659 10.5109 25.9329 11.5807 25.9329H23.993C25.0614 25.9329 25.932 25.0659 25.932 23.9954V15.7124H22.9104C23.1733 16.353 23.3217 17.0545 23.3217 17.7882Z" fill="#FDFFFC"/>
</g>
<defs>
<clipPath id="clip0_81_555">
<rect width="35.5769" height="35.5769" fill="white"/>
</clipPath>
</defs>
</svg>
