<svg width="59" height="18" viewBox="0 0 59 18" fill="none" xmlns="http://www.w3.org/2000/svg">
<path d="M4.61648 10.1349C3.60225 9.75046 2.93776 9.43593 2.65797 9.1913C2.37819 8.94667 2.20332 8.63214 2.20332 8.31761C2.20332 7.96813 2.37819 7.68855 2.72792 7.47886C3.07765 7.26918 3.49733 7.12938 4.02193 7.12938C4.75637 7.12938 5.42087 7.33907 6.01541 7.79339C6.57499 8.21276 7.02964 8.80688 7.3444 9.54078C7.37937 9.61067 7.48429 9.68057 7.55424 9.68057H7.65916C7.79905 9.68057 7.90397 9.57573 7.90397 9.43593V6.60517C7.90397 6.46538 7.79905 6.36053 7.65916 6.36053H7.48429C7.44932 6.36053 7.37937 6.36053 7.3444 6.39548C7.09959 6.57022 6.88975 6.67506 6.74985 6.67506C6.6799 6.67506 6.43509 6.64012 6.01541 6.60517C5.00119 6.46538 4.26675 6.36053 3.84707 6.36053C2.72792 6.36053 1.81861 6.67506 1.08417 7.30412C0.384707 7.93318 0 8.70203 0 9.61067C0 10.3795 0.244813 11.0086 0.699467 11.5328C1.18909 12.057 2.13337 12.5812 3.63723 13.1404C4.79135 13.5947 5.56076 13.9791 5.91049 14.2937C6.26023 14.6431 6.43509 15.0276 6.43509 15.4819C6.43509 15.9013 6.26023 16.2507 5.87552 16.5653C5.49081 16.8798 5.03616 17.0196 4.51156 17.0196C3.00771 17.0196 1.67872 15.9712 0.594547 13.8393C0.559573 13.7695 0.489627 13.6996 0.384707 13.6996H0.279787C0.139893 13.6996 0.0349733 13.8044 0.0349733 13.9442V17.5438C0.0349733 17.6836 0.139893 17.7884 0.279787 17.7884H0.454653C0.5246 17.7884 0.559573 17.7535 0.594547 17.7185C0.83936 17.5089 1.15412 17.404 1.53883 17.404C1.78364 17.404 2.20332 17.4739 2.79787 17.5788C3.39241 17.6836 3.98696 17.7535 4.58151 17.7535C5.59573 17.7535 6.50504 17.404 7.30942 16.7051C8.11381 16.0061 8.53349 15.1324 8.53349 14.1189C8.53349 13.2452 8.25371 12.5113 7.72911 11.8823C7.23948 11.2882 6.19028 10.6941 4.61648 10.1349Z" fill="#FDFFFC"/>
<path d="M37.1417 16.8798C37.1417 16.8798 37.1417 16.8449 37.1417 16.8798C37.1417 16.8449 37.1067 16.8449 37.1067 16.8099C36.3723 16.6352 35.8826 16.4255 35.6728 16.1459C35.463 15.8663 35.3231 15.377 35.3231 14.6431V6.60517C35.3231 6.46538 35.2181 6.36053 35.0783 6.36053H30.3569C30.3569 6.36053 30.3569 6.36053 30.3219 6.36053L30.147 6.39548V6.71001C30.147 6.81486 30.217 6.9197 30.3219 6.95465C31.3711 7.16433 31.9307 7.68855 31.9307 8.52729V13.9092C31.9307 13.9442 31.9307 14.0141 31.8957 14.049C31.4061 14.748 30.9864 15.2722 30.6017 15.5518C30.182 15.8314 29.6924 15.9712 29.1328 15.9712C28.4683 15.9712 27.9437 15.7964 27.559 15.4819C27.1743 15.1324 26.9994 14.6781 26.9994 14.084V6.60517C26.9994 6.46538 26.8945 6.36053 26.7546 6.36053H22.0332C22.0332 6.36053 22.0332 6.36053 21.9982 6.36053L21.8234 6.39548V6.67506C21.8234 6.77991 21.8933 6.88475 21.9982 6.9197C22.5578 7.02454 22.9775 7.19928 23.1873 7.44391C23.4321 7.7235 23.572 8.14287 23.572 8.73698V14.3636C23.572 15.412 23.9218 16.2158 24.5863 16.8099C25.2507 17.404 26.1601 17.6836 27.3491 17.6836C29.1328 17.6836 30.6366 16.8099 31.8607 15.0276H31.9307V15.377C31.9307 15.412 31.9307 15.4469 31.9307 15.4819V17.3341C31.9307 17.5788 32.1055 17.7535 32.3503 17.7535H33.1547H33.1897H36.8969C37.0368 17.7535 37.1417 17.6486 37.1417 17.5089V16.9497C37.1417 16.9147 37.1417 16.9147 37.1417 16.8798Z" fill="#FDFFFC"/>
<path d="M19.8648 7.68857C18.8156 6.81488 17.5216 6.39551 15.9478 6.39551C14.1991 6.39551 12.7302 6.95467 11.5761 8.073C10.387 9.19133 9.79248 10.5543 9.79248 12.2318C9.79248 13.8394 10.3521 15.2023 11.5062 16.2857C12.6603 17.3691 14.0942 17.8933 15.8079 17.8933C17.1369 17.8933 18.326 17.5788 19.3752 16.9148C20.3194 16.3207 21.0539 15.5169 21.5435 14.5383C21.6135 14.3636 21.5085 14.1889 21.3337 14.1889C21.2637 14.1889 21.1938 14.2238 21.1238 14.2937C20.0746 15.7615 18.7806 16.4954 17.2418 16.4954C16.1227 16.4954 15.1784 16.0411 14.4439 15.1324C13.6745 14.2238 13.3248 13.0705 13.3248 11.6377C13.3248 11.5678 13.3248 11.4979 13.3248 11.428C13.3248 11.2882 13.4297 11.1833 13.5696 11.1833H21.4386C21.5785 11.1833 21.6834 11.0436 21.6834 10.9038C21.4736 9.57575 20.844 8.49237 19.8648 7.68857ZM17.9063 10.5193H13.6046C13.4647 10.5193 13.3598 10.4145 13.3598 10.2747C13.4297 9.36607 13.6745 8.63216 14.0592 8.073C14.4789 7.44394 15.0385 7.16436 15.703 7.16436C16.3675 7.16436 16.927 7.47889 17.3817 8.10795C17.8014 8.66711 18.0462 9.40101 18.1511 10.2747C18.1861 10.4145 18.0462 10.5193 17.9063 10.5193Z" fill="#FDFFFC"/>
<path d="M58.7903 16.775C57.7062 16.6002 57.1466 15.9712 57.1466 14.9577V6.60517C57.1466 6.46538 57.0417 6.36053 56.9018 6.36053H56.1673H46.7245V6.39548C46.6196 6.43043 46.5147 6.50033 46.5147 6.64012V6.67506C46.5147 6.77991 46.5847 6.88475 46.7245 6.9197C47.5289 7.02454 47.9136 7.44391 47.9136 8.14287C47.9136 8.56224 47.7737 9.08646 47.459 9.71552L45.6404 13.3501C45.5354 13.5248 45.2906 13.5248 45.2207 13.3501L42.8075 8.66708C42.6676 8.3875 42.5977 8.14287 42.5977 7.93318C42.5977 7.44391 42.9124 7.09444 43.507 6.95465C43.6119 6.9197 43.6819 6.8498 43.6819 6.71001V6.64012C43.6819 6.50033 43.5769 6.39548 43.437 6.39548H36.8271C36.6872 6.39548 36.5823 6.50033 36.5823 6.64012V6.67506C36.5823 6.77991 36.6872 6.88475 36.7921 6.9197C37.3167 6.98959 37.7364 7.16433 38.0861 7.44391C38.4708 7.75844 38.9255 8.3875 39.3801 9.29614L43.5769 17.6487C43.6119 17.7185 43.7168 17.7884 43.7868 17.7884H44.1365C44.2414 17.7884 44.3114 17.7535 44.3464 17.6487L48.3683 9.50583C48.788 8.63214 49.2076 7.96813 49.6273 7.58371C50.047 7.19928 50.5017 6.98959 51.0612 6.9197H51.341C52.4951 6.9197 53.4394 7.75844 53.6493 8.80688C53.6493 8.84182 53.6493 8.91172 53.6493 8.94667V9.2612V14.748C53.6493 15.4469 53.5094 15.9362 53.2646 16.2158C53.0197 16.4604 52.5651 16.6701 51.8656 16.8099C51.8306 16.8099 51.7957 16.8449 51.7607 16.8449C51.7607 16.8798 51.7257 16.9147 51.6908 16.9497V17.5438C51.6908 17.6836 51.7957 17.7884 51.9356 17.7884H58.7554C58.8953 17.7884 59.0002 17.6836 59.0002 17.5438V17.0545C59.0002 16.9147 58.8953 16.8099 58.7903 16.775Z" fill="#FDFFFC"/>
<path d="M57.3566 2.16676C57.3566 3.35498 56.3773 4.33352 55.1882 4.33352C53.9991 4.33352 53.0199 3.35498 53.0199 2.16676C53.0199 0.978537 53.9991 0 55.1882 0C56.3773 0 57.3566 0.978537 57.3566 2.16676Z" fill="#FDFFFC"/>
</svg>
