<svg width="25" height="24" viewBox="0 0 25 24" fill="none" xmlns="http://www.w3.org/2000/svg">
<g clip-path="url(#clip0_1_554)">
<path d="M12.1429 12C11.0429 12 10.1429 11.1 10.1429 10C10.1429 8.9 11.0429 8 12.1429 8C13.2429 8 14.1429 8.9 14.1429 10C14.1429 11.1 13.2429 12 12.1429 12ZM18.1429 10.2C18.1429 6.57 15.4929 4 12.1429 4C8.79294 4 6.14294 6.57 6.14294 10.2C6.14294 12.54 8.09294 15.64 12.1429 19.34C16.1929 15.64 18.1429 12.54 18.1429 10.2ZM12.1429 2C16.3429 2 20.1429 5.22 20.1429 10.2C20.1429 13.52 17.4729 17.45 12.1429 22C6.81294 17.45 4.14294 13.52 4.14294 10.2C4.14294 5.22 7.94294 2 12.1429 2Z" fill="white"/>
</g>
<defs>
<clipPath id="clip0_1_554">
<rect width="24" height="24" fill="white" transform="translate(0.142944)"/>
</clipPath>
</defs>
</svg>
