<svg width="28" height="27" viewBox="0 0 28 27" fill="none" xmlns="http://www.w3.org/2000/svg">
<g clip-path="url(#clip0_81_550)">
<path fill-rule="evenodd" clip-rule="evenodd" d="M21.9069 8.47093C21.9869 8.44593 22.0909 8.49593 22.1959 8.63393L26.9199 13.2539C27.1959 13.5289 27.1959 13.9469 26.9199 14.1509L22.1959 18.8409C22.0909 18.9799 21.9859 19.0129 21.9069 18.9709C21.8269 18.9299 21.7769 18.8079 21.7769 18.6329V8.77193C21.7769 8.60093 21.8269 8.49593 21.9069 8.47193V8.47093ZM13.8269 0.773926H14.1619L14.4829 0.907926L19.3459 5.73593C19.5559 6.01193 19.4839 6.21993 19.1369 6.21993H17.1219C17.0399 6.21939 16.9587 6.23515 16.8828 6.26627C16.807 6.29739 16.7381 6.34326 16.6802 6.40121C16.6222 6.45917 16.5763 6.52806 16.5452 6.60389C16.5141 6.67971 16.4984 6.76096 16.4989 6.84293V10.4259C16.4989 10.7729 16.2189 11.0489 15.8009 11.0489H12.2589C12.1767 11.0496 12.0952 11.034 12.0191 11.0029C11.943 10.9719 11.8738 10.9261 11.8155 10.8682C11.7572 10.8102 11.7109 10.7413 11.6794 10.6654C11.6479 10.5895 11.6318 10.5081 11.6319 10.4259V6.84393C11.6323 6.76166 11.6163 6.68014 11.5849 6.60411C11.5535 6.52808 11.5073 6.45906 11.4489 6.40108C11.3905 6.3431 11.3212 6.29731 11.245 6.26638C11.1688 6.23545 11.0871 6.22 11.0049 6.22093H8.85189C8.50489 6.22093 8.43289 6.01293 8.64189 5.73693L13.5099 0.907926L13.8269 0.773926ZM6.20889 8.36693C6.29689 8.40893 6.35089 8.52993 6.35089 8.70493V18.7709C6.35089 18.9459 6.29689 19.0509 6.20889 19.0839C6.12489 19.1179 6.00389 19.0839 5.86189 18.9799L1.06589 14.1519C0.789887 13.9469 0.789887 13.5289 1.06589 13.2539L5.86189 8.49593C6.00389 8.35893 6.12489 8.32593 6.20889 8.36693ZM12.2609 16.2899H15.8019C16.2199 16.2899 16.4999 16.5659 16.4999 16.9119V20.7049C16.4999 21.1179 16.7759 21.3939 17.1229 21.3939H19.0009C19.3479 21.3939 19.4859 21.5989 19.2099 21.8069L14.4849 26.5649C14.3556 26.6958 14.1799 26.7706 13.9959 26.7729C13.813 26.7706 13.6386 26.6958 13.5109 26.5649L8.78689 21.8069C8.50689 21.5989 8.64389 21.3939 8.99089 21.3939H11.0069C11.3569 21.3939 11.6339 21.1179 11.6339 20.7039V16.9119C11.6339 16.5659 11.9139 16.2899 12.2609 16.2899Z" fill="#828282"/>
</g>
<defs>
<clipPath id="clip0_81_550">
<rect width="28" height="26" fill="white" transform="translate(0 0.773926)"/>
</clipPath>
</defs>
</svg>
