<svg width="18" height="28" viewBox="0 0 18 28" fill="none" xmlns="http://www.w3.org/2000/svg">
<g clip-path="url(#clip0_81_552)">
<path d="M17.2166 15.9933C17.216 15.9932 8.54169 14.0265 8.54169 14.0265C5.95621 13.4403 4.33433 10.8651 4.91924 8.27459C5.50451 5.68405 8.07487 4.05943 10.6603 4.64546C13.246 5.23171 14.8677 7.80688 14.2828 10.3973C13.9896 11.6942 13.199 12.7481 12.1578 13.4047C12.1576 13.4047 12.1551 13.4069 12.1541 13.4073C12.1235 13.4293 12.1037 13.4652 12.1037 13.5055C12.1037 13.562 12.1426 13.6095 12.1953 13.6221C12.1954 13.6224 16.054 14.4966 16.0547 14.4966C16.1465 14.5175 16.2419 14.4819 16.2983 14.4073C16.2986 14.4066 16.2984 14.4071 16.2984 14.4071C17.3615 12.9978 18 11.2393 18 9.33732C18 4.85817 14.5072 1.19768 10.1015 0.937692C10.0623 0.935518 9.82351 0.926172 9.74285 0.925022C7.79221 0.89434 5.81443 1.45472 4.09456 2.66148C-0.248722 5.70837 -1.30397 11.7057 1.73685 16.0571L9.45434 27.0997C9.48731 27.1447 9.54037 27.1739 9.59991 27.1739C9.65996 27.1739 9.7132 27.1443 9.74599 27.0989C9.74599 27.0989 17.3244 16.2709 17.325 16.2698C17.3444 16.2411 17.3559 16.2063 17.3559 16.169C17.3559 16.0833 17.2965 16.0117 17.2166 15.9933Z" fill="#828282"/>
</g>
<defs>
<clipPath id="clip0_81_552">
<rect width="18" height="26.4001" fill="white" transform="translate(0 0.773926)"/>
</clipPath>
</defs>
</svg>
