<svg width="80" height="80" viewBox="0 0 80 80" fill="none" xmlns="http://www.w3.org/2000/svg">
<path d="M39.9979 48.0077C44.411 48.0077 48.0089 44.4163 48.0089 39.9999C48.0089 38.2566 47.4385 36.647 46.4943 35.3322C45.0394 33.315 42.6742 31.9922 40.0028 31.9922C37.3298 31.9922 34.9661 33.3134 33.508 35.3306C32.5606 36.6454 31.995 38.255 31.9934 39.9983C31.9886 44.4147 35.5832 48.0077 39.9979 48.0077Z" fill="#343F24"/>
<path d="M57.4844 30.2035V23.4911V22.4922L56.4806 22.4954L49.7715 22.5164L49.7973 30.2292L57.4844 30.2035Z" fill="#343F24"/>
<path d="M40 0C17.9441 0 0 17.9441 0 40C0 62.0543 17.9441 80 40 80C62.0543 80 80 62.0543 80 40C80 17.9441 62.0575 0 40 0ZM62.7487 35.3323V53.9579C62.7487 58.8093 58.8045 62.7519 53.9563 62.7519H26.0437C21.1939 62.7519 17.2513 58.8093 17.2513 53.9579V35.3323V26.0453C17.2513 21.1955 21.1939 17.2529 26.0437 17.2529H53.9547C58.8045 17.2529 62.7487 21.1955 62.7487 26.0453V35.3323Z" fill="#343F24"/>
<path d="M52.4422 39.9997C52.4422 46.8587 46.861 52.4431 39.9988 52.4431C33.1366 52.4431 27.557 46.8587 27.557 39.9997C27.557 38.3498 27.8857 36.7725 28.4722 35.332H21.6809V53.9577C21.6809 56.3648 23.6353 58.3144 26.0409 58.3144H53.9519C56.3542 58.3144 58.3119 56.3648 58.3119 53.9577V35.332H51.5174C52.1087 36.7725 52.4422 38.3498 52.4422 39.9997Z" fill="#343F24"/>
</svg>
