<svg width="80" height="80" viewBox="0 0 80 80" fill="none" xmlns="http://www.w3.org/2000/svg">
<g clip-path="url(#clip0_1_538)">
<path d="M40 0C17.9441 0 0 17.9441 0 40C0 62.0543 17.9441 80 40 80C62.0543 80 80 62.0543 80 40C80 17.9441 62.0575 0 40 0Z" fill="#343F24"/>
<path d="M61.418 37.4021C57.2085 37.4021 53.3074 36.0553 50.1233 33.7699V50.2682C50.1233 58.5078 43.4201 65.2109 35.1805 65.2109C31.9964 65.2109 29.0441 64.2067 26.617 62.5028C22.7635 59.7974 20.2378 55.3237 20.2378 50.2682C20.2378 42.0287 26.941 35.3253 35.1805 35.3253C35.8643 35.3253 36.5346 35.3815 37.1942 35.4713V37.3943V43.7593C36.5568 43.5596 35.883 43.4437 35.1805 43.4437C31.4177 43.4437 28.3562 46.5053 28.3562 50.2683C28.3562 52.8886 29.8427 55.1654 32.0149 56.3086C32.962 56.807 34.038 57.0926 35.1805 57.0926C38.8566 57.0926 41.8553 54.1685 41.9918 50.5251L42.0049 17.9893H50.1233C50.1233 18.6931 50.1911 19.3808 50.3149 20.0492C50.8876 23.1425 52.7235 25.7962 55.2672 27.4546C57.0385 28.6096 59.1504 29.2837 61.4179 29.2837V37.4021H61.418Z" fill="white"/>
</g>
<defs>
<clipPath id="clip0_1_538">
<rect width="80" height="80" fill="white"/>
</clipPath>
</defs>
</svg>
