<svg width="36" height="36" viewBox="0 0 36 36" fill="none" xmlns="http://www.w3.org/2000/svg">
<g clip-path="url(#clip0_81_565)">
<path d="M0.711538 17.7885C0.711538 8.37292 8.37292 0.711538 17.7885 0.711538C27.2047 0.711538 34.8654 8.3729 34.8654 17.7885C34.8654 27.2033 27.2033 34.8654 17.7885 34.8654C8.37293 34.8654 0.711538 27.2033 0.711538 17.7885Z" fill="#FDFFFC" stroke="white" stroke-width="1.42308"/>
<path d="M5.38545 18.1104L10.4138 19.9872L12.36 26.2463C12.4846 26.6472 12.9748 26.7954 13.3001 26.5294L16.103 24.2444C16.3968 24.005 16.8153 23.9931 17.1223 24.216L22.1777 27.8863C22.5257 28.1393 23.0189 27.9485 23.1061 27.5279L26.8095 9.71428C26.9048 9.25485 26.4533 8.87157 26.0159 9.04077L5.37956 17.0016C4.87029 17.198 4.87473 17.919 5.38545 18.1104ZM12.0464 18.9881L21.8735 12.9356C22.0502 12.8271 22.2319 13.0659 22.0802 13.2066L13.9699 20.7455C13.6849 21.0108 13.501 21.366 13.4489 21.7514L13.1726 23.7988C13.136 24.0722 12.752 24.0993 12.6766 23.8347L11.6141 20.1013C11.4924 19.6755 11.6697 19.2206 12.0464 18.9881Z" fill="#343F24"/>
</g>
<defs>
<clipPath id="clip0_81_565">
<rect width="35.5769" height="35.5769" fill="white"/>
</clipPath>
</defs>
</svg>
