<svg width="36" height="36" viewBox="0 0 36 36" fill="none" xmlns="http://www.w3.org/2000/svg">
<g clip-path="url(#clip0_81_569)">
<path d="M0.711538 17.7885C0.711538 8.37292 8.37292 0.711538 17.7885 0.711538C27.2047 0.711538 34.8654 8.3729 34.8654 17.7885C34.8654 27.2033 27.2033 34.8654 17.7885 34.8654C8.37293 34.8654 0.711538 27.2033 0.711538 17.7885Z" fill="#FDFFFC" stroke="white" stroke-width="1.42308"/>
<path d="M27.3133 16.6331C25.4413 16.6331 23.7064 16.0342 22.2904 15.0178V22.3548C22.2904 26.0191 19.3094 29 15.6452 29C14.2292 29 12.9163 28.5534 11.8369 27.7957C10.1232 26.5926 9 24.6031 9 22.3548C9 18.6906 11.981 15.7095 15.6452 15.7095C15.9493 15.7095 16.2474 15.7345 16.5407 15.7744V16.6297V19.4602C16.2572 19.3714 15.9576 19.3199 15.6452 19.3199C13.9718 19.3199 12.6103 20.6814 12.6103 22.3549C12.6103 23.5201 13.2714 24.5327 14.2374 25.041C14.6586 25.2627 15.1371 25.3897 15.6452 25.3897C17.28 25.3897 18.6135 24.0893 18.6743 22.4691L18.6801 8H22.2904C22.2904 8.31299 22.3206 8.61884 22.3756 8.91609C22.6303 10.2917 23.4468 11.4719 24.578 12.2094C25.3657 12.723 26.3049 13.0228 27.3133 13.0228V16.6331H27.3133Z" fill="#343F24"/>
</g>
<defs>
<clipPath id="clip0_81_569">
<rect width="35.5769" height="35.5769" fill="white"/>
</clipPath>
</defs>
</svg>
