<svg width="28" height="27" viewBox="0 0 28 27" fill="none" xmlns="http://www.w3.org/2000/svg">
<g clip-path="url(#clip0_81_547)">
<path d="M6.877 5.72392L17.75 2.77492L17.174 1.61992C16.9914 1.25818 16.6734 0.983162 16.2892 0.854692C15.9049 0.726223 15.4854 0.754695 15.122 0.933915L5.388 5.72392H6.877ZM21.125 2.86092C20.99 2.86092 20.855 2.87892 20.72 2.91592L18.166 3.60892L10.365 5.72292H23.079L22.601 3.98292C22.5121 3.65987 22.3195 3.37502 22.0528 3.17227C21.786 2.96951 21.46 2.86011 21.125 2.86092ZM24.672 6.78692H2.035C1.63015 6.78637 1.24152 6.946 0.953936 7.23096C0.666353 7.51592 0.503169 7.90307 0.5 8.30792V25.2539C0.5 26.0939 1.186 26.7739 2.031 26.7739H24.67C25.516 26.7739 26.202 26.0939 26.202 25.2539V21.0109H17.114C16.426 21.0128 15.7654 20.7415 15.2774 20.2566C14.7893 19.7717 14.5136 19.1129 14.511 18.4249V15.0419C14.511 14.3419 14.792 13.7069 15.249 13.2419C15.491 12.9932 15.7805 12.7958 16.1004 12.6615C16.4203 12.5271 16.764 12.4586 17.111 12.4599H26.202V8.30792C26.2017 8.10762 26.1619 7.90935 26.0849 7.72446C26.0079 7.53958 25.8951 7.37172 25.753 7.23051C25.611 7.0893 25.4425 6.97752 25.2571 6.90157C25.0718 6.82561 24.8733 6.78699 24.673 6.78792L24.672 6.78692Z" fill="#828282"/>
<path d="M27.281 13.9141C26.9988 13.6571 26.6307 13.5147 26.249 13.5151H17.118C16.273 13.5151 15.587 14.1961 15.587 15.0351V18.4211C15.587 19.2611 16.273 19.9411 17.118 19.9411H26.25C26.424 19.9411 26.59 19.9111 26.746 19.8601C26.948 19.7931 27.129 19.6831 27.282 19.5431C27.588 19.2671 27.782 18.8651 27.782 18.4211V15.0361C27.782 14.8244 27.7376 14.6149 27.6514 14.4215C27.5653 14.228 27.4394 14.0548 27.282 13.9131L27.281 13.9141ZM20.316 17.0311C20.316 17.4511 19.973 17.7911 19.55 17.7911H19.042C18.9418 17.7915 18.8425 17.7722 18.7498 17.7342C18.657 17.6962 18.5727 17.6404 18.5016 17.5698C18.4304 17.4992 18.3739 17.4153 18.3352 17.3229C18.2965 17.2305 18.2764 17.1313 18.276 17.0311V16.5261C18.276 16.2831 18.389 16.0661 18.57 15.9301C18.705 15.825 18.8709 15.7673 19.042 15.7661H19.55C19.973 15.7661 20.316 16.1061 20.316 16.5261V17.0311Z" fill="#828282"/>
</g>
<defs>
<clipPath id="clip0_81_547">
<rect width="28" height="26" fill="white" transform="translate(0 0.773926)"/>
</clipPath>
</defs>
</svg>
